<svg xmlns="http://www.w3.org/2000/svg" xmlns:xlink="http://www.w3.org/1999/xlink" viewBox="0 0 796.43 136.66"><defs><style>.cls-1{font-size:86.33px;fill:#1d345d;font-family:MuseoSansRounded-300, Museo Sans Rounded;font-weight:300;}.cls-2{fill:#009ee2;letter-spacing:0em;}.cls-3{fill:#1d70b7;}.cls-4{fill:#005680;}.cls-5,.cls-6{fill:none;stroke-miterlimit:10;}.cls-5{stroke:#009ee2;stroke-width:6.06px;}.cls-6{stroke-width:10.46px;stroke:url(#radial-gradient);}</style><radialGradient id="radial-gradient" cx="68.33" cy="68.33" r="68.33" gradientUnits="userSpaceOnUse"><stop offset="0.43" stop-color="#009de2"/><stop offset="0.49" stop-color="#009de2" stop-opacity="0.97"/><stop offset="0.56" stop-color="#009de2" stop-opacity="0.89"/><stop offset="0.66" stop-color="#009de2" stop-opacity="0.75"/><stop offset="0.76" stop-color="#009de2" stop-opacity="0.56"/><stop offset="0.87" stop-color="#009de2" stop-opacity="0.32"/><stop offset="0.99" stop-color="#009de2" stop-opacity="0.03"/><stop offset="1" stop-color="#009de2" stop-opacity="0"/></radialGradient></defs><title>FreshAir-Holdings--logo</title><g id="Layer_2" data-name="Layer 2"><g id="Layer_1-2" data-name="Layer 1"><text class="cls-1" transform="translate(143.82 99.05)">Fresh<tspan class="cls-2" x="206.83" y="0">Air</tspan><tspan class="cls-3" x="307.83" y="0">Holdings</tspan></text><path class="cls-4" d="M50,30.61s0-.06-.08-.06h-.06s-.65.17-.76.46.2.59.3.66l.07,0s.06,0,.09-.05,0,0,.08-.05a1,1,0,0,0,.12-.15l.06-.09.1-.2,0-.06L50,31a.56.56,0,0,0,.05-.31S50.05,30.63,50,30.61Z"/><path class="cls-4" d="M47.19,26.26l0,0h.07s3.56-.36,4.49-1.29c.26-.25-.37-.28-.38-.28h-.18l-.12,0-.15,0-.14,0-.18.05-.12,0c-.54.17-1.15.38-1.34.46a.52.52,0,0,1-.17,0,.44.44,0,0,1-.22-.09l0,0c0-.05-.07-.1,0-.13a.37.37,0,0,1,.18-.08c.57-.16.29-.34.23-.34h0l-.16,0a1.09,1.09,0,0,1-.24.07,1,1,0,0,1-.24,0l-.19,0h-.07l-.32.06a1.11,1.11,0,0,0-.36.39.48.48,0,0,0,.22-.05l.22-.07H48a.27.27,0,0,1,.14,0c.09.06-.19.42-.21.43s-.41.22-.57.4l-.15.2s0,0,0,0,0,0,0,.06S47.18,26.25,47.19,26.26Z"/><path class="cls-4" d="M111.61,61.46l.26.15.14.07.26.1.13,0,.15,0h.09v0l-.43-.55a.39.39,0,0,0-.19-.12c-.14,0-.29,0-.42-.08l-.21-.08h-.06c-.11,0-.14.1-.07.21a.69.69,0,0,0,.23.21Z"/><path class="cls-4" d="M45.31,34.92a1.46,1.46,0,0,0,.22,0,.77.77,0,0,0,.25,0,.22.22,0,0,0,.09-.08.28.28,0,0,0-.07-.27c-.09-.08-.2-.13-.28-.21a2.84,2.84,0,0,0-.37-.47l-.08-.06c-.16-.1-.36-.08-.52-.18s-.1-.2-.2-.26H44.3a5.32,5.32,0,0,0-.66.8l-.2.3-.54.87c.32,0,.32,0,.35.19a.89.89,0,0,0,0,.17h0s0,0,0,0h0a1.29,1.29,0,0,0,.3-.23,2.42,2.42,0,0,1,1.17-.62A2.37,2.37,0,0,1,45.31,34.92Z"/><path class="cls-4" d="M45.05,35.52a.07.07,0,0,0-.06,0h-.1a3.52,3.52,0,0,0-.94.34c-.14.1-.16.4-.08.46h.06l.11,0,.11,0,.21-.1.14-.07.23-.15.11-.08a1,1,0,0,0,.23-.22.12.12,0,0,0,0-.1Z"/><path class="cls-4" d="M55.14,45.68l-.09,0-.08,0-.13,0-.11,0-.15,0-.12,0-.16,0-.13,0-.15,0h-.47c-.29.1.36.42.5.48a1.41,1.41,0,0,0,.49.15l.09,0h.08s0,0,.08,0a.62.62,0,0,0,.27-.07l.07,0,.08-.08s0-.06,0-.09Z"/><path class="cls-4" d="M51.65,76.66l-.09,0-.15,0h0l-.13,0c-.26.18.08.53.41.58H52l.17,0,.13,0,.17,0,.08,0c.07,0,.13,0,.13,0s0-.13-.59-.3Z"/><path class="cls-4" d="M44.91,26.12h0l.12,0,.07,0a1.91,1.91,0,0,0,.31-.18c.23-.16.2-.21.16-.22h-.07a3.21,3.21,0,0,0-.3.14l-.32.26s0,0,0,0h0Z"/><path class="cls-4" d="M44.72,25.53a.91.91,0,0,0,.19-.13h0a2,2,0,0,0-.25.12s-.06.05-.05.06h0A.36.36,0,0,0,44.72,25.53Z"/><path class="cls-4" d="M46.12,24.86l.24-.08.29-.14.23-.13h0a13.74,13.74,0,0,0-1.41.63L45.8,25A2.15,2.15,0,0,1,46.12,24.86Z"/><path class="cls-4" d="M44.47,25.75l.08,0,.15-.07.17-.07a.31.31,0,0,1,.1,0l.2-.1.16-.09s0,0,0,0h0s0,0,.3-.14l.29-.13,0,0H45.9a5.57,5.57,0,0,0-1.53.76h0Z"/><path class="cls-4" d="M46.15,25.22l.05,0,.08-.08a1.66,1.66,0,0,0,.14-.13s0,0,0,0h0a1.89,1.89,0,0,0-.47.28h0s0,0,0,.11A2.36,2.36,0,0,0,46.15,25.22Z"/><path class="cls-4" d="M44.15,26.69h0l-.13.05a2.41,2.41,0,0,0-.43.29h0a2.17,2.17,0,0,0,.55-.25S44.19,26.7,44.15,26.69Z"/><path class="cls-4" d="M44.51,27.52l-.06,0h-.08l-.06,0-.52.1a3.36,3.36,0,0,0-1,.51h0c.06,0,.12,0,.18,0s.06.09,0,.12a4.54,4.54,0,0,1-.62.46l-.08,0c0-.13.13-.18.13-.29a1.31,1.31,0,0,0-.56.36.06.06,0,0,0,0,0c0,.1.08.19.1.29a.53.53,0,0,1,0,.12,1.46,1.46,0,0,0,0,.22.06.06,0,0,0,0,0H42l.14,0,.13,0,.27-.13.19-.1.3-.18.17-.11a1.93,1.93,0,0,0,.35-.28.93.93,0,0,0,.15-.26h0a.39.39,0,0,0,0-.14s0,0,0,0,0,0,0,0h0a2.75,2.75,0,0,0-.41.11c.27-.18.57-.3.85-.49C44.17,27.83,44.51,27.54,44.51,27.52Z"/><path class="cls-4" d="M41.18,27.47c.51-.23.93-.59,1.43-.83l-.53.34,1.7-1a.53.53,0,0,0,.13-.11h-.06a31.22,31.22,0,0,0-3.27,1.87c.25,0,.41-.24.63-.35Z"/><path class="cls-4" d="M41.19,31h0l-.11.07a8.11,8.11,0,0,1-.62.55c-.4.24-.52.32-.54.37h0l.14,0,.14,0a.06.06,0,0,1,.06,0c.05,0,0,.12.11.14h.05a.72.72,0,0,0,.19,0,2,2,0,0,0,1-.41c.08-.09-.11-.45-.12-.45A.52.52,0,0,0,41.19,31Z"/><path class="cls-4" d="M42.15,28.14h0l-.11,0a1.3,1.3,0,0,0-.64.36h.11s0,0,0,.1l0,.09s0,0,0,0,0,0,0,0h0a2.7,2.7,0,0,0,.53-.4C42.18,28.22,42.22,28.15,42.15,28.14Z"/><path class="cls-4" d="M62,20.46a13.89,13.89,0,0,0-3.87,1,.14.14,0,0,0,.09,0h.31a2.71,2.71,0,0,1-1.24.57,17.17,17.17,0,0,0-1.84.61.5.5,0,0,0-.1.23s0,0,0,.06a.25.25,0,0,0,0,.12s0,0,0,0a.41.41,0,0,0,.07.11l.07,0,.1.07.09,0,.1.05.1,0,.08,0,.19.05,1-.07.35,0,.38,0,.29,0h.91l.11,0h.05a.29.29,0,0,1,.08,0h0l.07.06s1.42,1.57,1,2.41c-.18.35-.18.36-.17.41s.25.19.31.34,0,.51.13.74a2.18,2.18,0,0,0,.47-.21,1,1,0,0,1,.43-.14.63.63,0,0,1,.29.05.69.69,0,0,1,.43,1c-.33.4-.93.38-1.23.82a1.86,1.86,0,0,0-.2,1.3c.05.19,2.4,4.16,3.53,4.54-.57-8.27-1-12-1.55-13.81.51,1.57.93,4.65,1.55,13.81l1,.18.28,0,.46.08.23,0,.3,0h.16l.19,0h.09a.88.88,0,0,0,.23,0l0,0a.31.31,0,0,0,.11-.09,14.64,14.64,0,0,0,.81-2.93c.07-.38-.13-.78.09-1.14.11-.19.13-.2.83-.41,2.22-.67,2.22-.67,2.27-1.09s.1-.67.5-.88c1-.49,2.08-.56,3-1.05a9.46,9.46,0,0,0,1.19-.6s.19-.14,0-.43-.83-.67-1.15-1.11a4.92,4.92,0,0,1-.34-.93c-.16-.35-.08-.45.11-.65s.09-.39-.48-.72c-1.84-1.09-1.85-1.11-2-1.36l0-.07.1,0c-.54-.52-1.63-.11-1.89-1.11l-.19-.09,0-.15.08,0-1-.08h-.43l-.2,0h-.13l-.17,0h-.09l-.15,0a1.34,1.34,0,0,1-.2,0,1.65,1.65,0,0,1-.44-.1,2,2,0,0,0-.49-.11c-.41,0-1.19,0-1.75,0H65c-.88.05-.88.05-1,.12h0a9.19,9.19,0,0,0-1.42.14h0s0,0,0,0h0a3.58,3.58,0,0,1,.73.08h-1Z"/><path class="cls-4" d="M55.57,21.45l-.14,0-.14,0-.17,0-.21.06-.14,0-.22.06-.14,0-.24.08-.08,0-.19.08-.06,0a.36.36,0,0,0-.13.09l.09,0h.1l.22-.05.07,0,.41-.1-.44.16c.46-.1,2-.51,2.19-.58a25.11,25.11,0,0,1-2.62.77.59.59,0,0,0-.33.15.9.9,0,0,1-.23.47l-.13,0a1.77,1.77,0,0,0-.2,0l-.19,0-.32.11-.18.08-.3.15-.12.06-.2.11c.11,0,.22,0,.32.09v0a2.87,2.87,0,0,0,.69-.21,4.89,4.89,0,0,1-.54.26l-.11,0-.18.05h-.06a.27.27,0,0,1-.12-.05c-.64,0-.68.26-.7.38-.36.24-.83.26-1.16.58l0,.05h.24l.16,0,.08,0,.37-.07a3.48,3.48,0,0,0,.62-.21,2.17,2.17,0,0,1,.56-.13,1.41,1.41,0,0,1,.29,0c0,.1,0,.1-.15.19H52a1.36,1.36,0,0,0,.34-.08l.06,0a3,3,0,0,0,.41-.18l0,0a2.5,2.5,0,0,0,.34-.24,0,0,0,0,1,0,0c.08-.08.13-.16.1-.23l-.13,0a4.29,4.29,0,0,1,1-.65c1-.25,1.39-.63,1.4-.72l0,0a6.15,6.15,0,0,0,1.69-.56h-.1l-.14,0,2.27-.7c-.56.08-.59.08-.8.1.54-.15,1.09-.23,1.62-.37-.52,0-1.38.11-1.39.11s-2.1.36-2.54.53a.14.14,0,0,0,.08.07.48.48,0,0,1-.18,0,.73.73,0,0,1-.2,0h-.15Z"/><path class="cls-4" d="M46.24,25.5a1.13,1.13,0,0,1-.12.18,1.48,1.48,0,0,1-.29.25l.07-.18s0-.05,0-.08h0l-.07,0-.06,0a.65.65,0,0,0-.25.17h.06v0a3.82,3.82,0,0,1-.74.34h0s0,0,.06,0,0,.06,0,.08h0l.06,0h0l.15-.05.06,0,.37-.12c-.22.12-.8.44-.84.59h0s.79-.29.88-.35.07,0,.51-.42a.15.15,0,0,1,0,.07h0c.21-.19.21-.19.74-.63.11-.09.12-.1.14-.13H47a7.39,7.39,0,0,0-.76.25S46.24,25.49,46.24,25.5Z"/><path class="cls-4" d="M53.78,31a.55.55,0,0,1,.18.08s.08,0,.12.06a1.86,1.86,0,0,1,.22.19l.12.1.2.23.07.08a1.25,1.25,0,0,1,.12.14,2.37,2.37,0,0,0,.25.29l.07,0s.1.09.15.09h0c.45-.08,1.11-1.77,1.11-1.79a.36.36,0,0,0,0-.18l-3.24-.73a4.56,4.56,0,0,1,1-.48c.34-.15.51-.23.5-.32A3.76,3.76,0,0,0,53,27.4H52.6a.9.9,0,0,1-.39-.07c-.25-.12-.22-.53-.56-.56h0l-.15,0-.13,0-.22.06-.16,0-.27.09-.13.05-.39.14-.26.1-.08,0-.09,0h-.16a2.86,2.86,0,0,1-.1-.91.68.68,0,0,0-.22,0h0a2.66,2.66,0,0,0-.39,0h-.11l-.28.05c-1,.23-3.88,2.66-3.33,3a.74.74,0,0,0,.31.12h.12a3,3,0,0,0,.31,0H46l.45,0h.07a4.18,4.18,0,0,0,.51-.07l.11,0,.31-.07.09,0a.91.91,0,0,0,.23-.07c0-.15-.06-.26.75-.35s.79-.24.86-.35a5.75,5.75,0,0,1,.62.48c.23.25.33.59.55.86s.93.3.93.91c0,0-.14,1.39-2.05,2a8.68,8.68,0,0,0-1.74.43.33.33,0,1,0,0,.65h.09a1.7,1.7,0,0,0,.28,0l.16,0a7,7,0,0,0,.69-.19l.34-.11.06,0a1.45,1.45,0,0,1,.28,0h.22l.08,0,.19,0,.1,0,.28.11.1,0,.49.22c-.11.11-.11.11-.66.32a.88.88,0,0,0,.18.1l.09,0,.22.08.13,0,.28.08.13,0,.46.09h0l.43.06.14,0,.29,0h.29a1.14,1.14,0,0,0,.44-.07c0-.07,0-.07-.14-.13a10.79,10.79,0,0,1-1.1-1,2.74,2.74,0,0,1,1.53.5.41.41,0,0,0,.18.1h0c.26-.08.69-1.06.48-1.28-.45-.47-1.3-.41-1.55-1.14S53.76,31,53.78,31Z"/><path class="cls-4" d="M43.2,26.4a0,0,0,0,0,0,0l.09,0,0,0,.21-.11.09-.07h0A2.29,2.29,0,0,0,43.2,26.4Z"/><path class="cls-4" d="M61.11,28.23l.49-.1s.13-.06.16-.15a.14.14,0,0,0,0-.13c-.05-.08-.14-.1-.19-.17a.16.16,0,0,1,0-.1s0,0,0,0l-.11,0h-.13c-.22.05-.85.41-.51.63a.59.59,0,0,0,.26.06Z"/><path class="cls-4" d="M50.32,26.84l.13,0,.31-.06.15-.05.27-.09.09,0,.14-.06h0s-.06,0-.13-.07l-.08,0L51,26.36l-.13,0a.78.78,0,0,0-.22,0l-.15,0h-.35c-.44.08-.3.38-.2.47a.53.53,0,0,0,.3.08Z"/><path class="cls-4" d="M47.94,24.2a2.49,2.49,0,0,0-.42.19l.06,0a1.33,1.33,0,0,1,.36-.05H48c0,.08-.13.07-.15.15s0,0,0,0h0a.59.59,0,0,0,.19,0h0l.15-.06a2.11,2.11,0,0,0,.57-.53h0s-.08,0-.13,0h0a.2.2,0,0,1,.11-.09.47.47,0,0,0,.12-.07h0a6.37,6.37,0,0,0-1,.41H48a.34.34,0,0,1,.14,0S48.15,24.12,47.94,24.2Z"/><path class="cls-4" d="M46.06,26.27c-.09.06-.12.08,0,.17a.25.25,0,0,0,.13,0l.12,0,.09,0a1.08,1.08,0,0,0,.37-.21c.15-.13.46-.45.32-.46h-.06A6.37,6.37,0,0,0,46.06,26.27Z"/><path class="cls-4" d="M50.31,23.94h-.07l-.59.2c-.23.07-.47.11-.7.18l-.3.11h.18l.13,0,.15,0,.19,0,.14,0,.3-.08a1.31,1.31,0,0,0,.51-.25Z"/><path class="cls-4" d="M48.65,24.29h0c.08,0,.77-.3,1-.39s.11-.06.11-.1-.06,0-.07-.06,0,0,0-.06h0l0,0h-.09l-.11.06c-.15.1-.25.28-.43.34S48.69,24.18,48.65,24.29Z"/><path class="cls-4" d="M50,23.37h0a1.56,1.56,0,0,0,.24-.1c.49-.25.49-.25.5-.27h-.05s-.49.16-.63.23-.11.14-.11.14Z"/><path class="cls-4" d="M50.85,23.14h0l.09,0h.07l.12,0h0l.09,0,.25-.06h.1v0a1.64,1.64,0,0,1-.33.13,4.06,4.06,0,0,0-.75.27c-.12.07-.13.22-.08.25h0l.07,0h.07l.22-.07c.15,0,.3,0,.44-.06.35-.12.65-.35,1-.5s.43-.12.64-.22l0,0-.16,0h0l.11-.06c.29-.13.29-.14.3-.17s-.07,0-.1,0,.15-.09.13-.19.16-.1.22-.18h-.06a16.06,16.06,0,0,0-1.74.65h0l.16,0a1.48,1.48,0,0,1-.46.16,1.14,1.14,0,0,0-.58.31h.06Z"/><path class="cls-4" d="M117.83,69.83c-.08-1.41-.15-3.28-.29-4.68-.07-.42-.12-.8-.18-1.16a37,37,0,0,1-1-5.22l0,0c-1.61-5.35-1.61-5.35-1.64-5.61l0,0a30.91,30.91,0,0,0-1.6-3.91L111.43,46a7.07,7.07,0,0,0-1.84-1.7,6.42,6.42,0,0,1,1.84,1.7c-.66-1.08-1.51-2.55-2.22-3.6a48.54,48.54,0,0,0-5-6.23l-2-2h0l-.23-.21a10.29,10.29,0,0,0,1,1c-.16-.09-.28-.2-.43-.3a5.16,5.16,0,0,0,1,1l-.08.06c-1.39-1.14-2.58-2.52-4-3.64a18.15,18.15,0,0,0,2,1.44,20.89,20.89,0,0,0-3.74-3,7.82,7.82,0,0,1-1.24-.82l.19.08a3.05,3.05,0,0,0-.45-.31l-.08.05a3.93,3.93,0,0,1-.93-.55l.2.07c-.12-.28-1.36-.84-1.45-.87a1.13,1.13,0,0,0,.26.38c-.43-.15-.64-.6-1.07-.75.08.19.29.28.37.48-.15.34-.15.34-.13.54a16.79,16.79,0,0,0,1,2.09c.74,1.14.72,1.54.71,1.58-.15,1.06-.15,1.06-.73,1.48-.21.16-.21.23-.09.51,0,0,0,.06.06.15l0,.1c0,.09.08.17.14.28l.1.2.18.34.15.24.22.35.18.25a2.85,2.85,0,0,0,.25.33l.21.23.27.25.22.16a1.92,1.92,0,0,0,.29.14,2,2,0,0,0,.23.06l.1,0a.8.8,0,0,0,.36-.09c.47-.21.24-1,.12-1.35a34,34,0,0,1,3.19,3.47c.22.38.44.74.84.75a2.92,2.92,0,0,0-.13-1.63c-.58-1.06-.45-1.18-.16-1.45,0-.26,0-.35-.76-.85C100,36,100,36,99.24,34.87c-.26-.43.18-1-.22-1.39A11,11,0,0,1,98,32.35l-.06-.14,0-.08a5.54,5.54,0,0,1,1.76,1.25h-.1c1,2.22,1,2.22,1.94,3.1s2.08.65,2.9,1.41a1.85,1.85,0,0,1-.39-.15l-.08,0a2.68,2.68,0,0,0,.18.28,9.08,9.08,0,0,0-1.44-.41,17.38,17.38,0,0,1,1.75,2.16.55.55,0,0,1-.32-.13.93.93,0,0,1-.13-.15l-.17-.18a1,1,0,0,0-.17-.19l-.13,0a.4.4,0,0,0-.19-.07h0l0,.09s.65,1.2.72,1.29.53.67.5.92h-.4c0,.1-.06.22-.1.32l0,.07h0l-.67,0-.17,0h-.45a.66.66,0,0,0-.19,0h0s0,0,0,.08l-.21.13a3.67,3.67,0,0,0-1.13-.38l.73.13a1.14,1.14,0,0,0-.33-.19s-.12,0-.17,0a1.38,1.38,0,0,0-.45-.09h-.24a.18.18,0,0,1-.09,0l0,0-.14-.13-.07-.07-.32-.35A3.05,3.05,0,0,1,99.14,39c0-.25-.36-1.28-.63-1.31h-.15l-.14,0-.13,0-.14.07-.09.05a.2.2,0,0,0,0,.22,18.27,18.27,0,0,0,1.79,2.76,1.69,1.69,0,0,1,.31.4s0,.05-.26.09l-.51.08-.15.21h-.7l-.06,0-.1,0,0,0-.12.11a8.1,8.1,0,0,0,.39,1.38l-.14.23h-.39a1.21,1.21,0,0,0-.3,0h-.08l-.28.09s0,0,.3.75a2.51,2.51,0,0,1-.57.28,1.46,1.46,0,0,1-.12.54,1.71,1.71,0,0,1-1.24-.38c.09.15.21.34.31.48s0,.17-.08.25a3.31,3.31,0,0,1-.53.18c-.38-.24-.38-.24-1-.25l-.11.23c.15.14.35.32.51.45a1.59,1.59,0,0,0-.21.15,4.14,4.14,0,0,1,3,4.69c-1.69-.12-3.32-.63-5-.8a3.72,3.72,0,0,0,.33.45s.19,4.55.77,4.72c-.16,1.39-.16,1.39-.19,1.52l.73,0h.54a2.81,2.81,0,0,1,.65.07c.2.8.2.8.21.82l2.75-.92c.76-.09,1-1.06.54-1.71.44-1.81.46-1.81,1.6-2.26,0-1.46,0-1.46.14-1.56a.48.48,0,0,1,.37-.14h0a.76.76,0,0,1,.28.09l.2.11.19.09a.67.67,0,0,0,.33.1l.28-.46.09-.11a1,1,0,0,1,.25-.26l.06,0a.5.5,0,0,1,.34-.07h.08a1.08,1.08,0,0,1,.42.24s3.88,4.44,4.26,5.68c.28.93.15,1-1.47,1.17a8,8,0,0,0,1.31,1.39c.13-.44-.14-.86-.06-1.3l.24,0c.21-.3.29-.66.48-1a3.18,3.18,0,0,1-.24-1.14l.25-.07.33.45c-.08-.4-.08-.4-1.38-2a1.83,1.83,0,0,1,.06-.25c-.62-.27-1.1-.49-2.73-3.82a.89.89,0,0,1,.38-.31l3.69,4.34,1.11,3.19,1.17,2.68a4.73,4.73,0,0,0,0-.52,10.34,10.34,0,0,0-.37-1.84c-.4-2-.4-2-.21-2.14a1.87,1.87,0,0,1,1.26,1.1,3.31,3.31,0,0,0,.22-.47l.26,0c.24-1.81-1-3.38-.83-5.19a.71.71,0,0,1,.21,0,.92.92,0,0,1,.26,0l-.1.23a1.9,1.9,0,0,0,.58.49,1.39,1.39,0,0,1,0,.82c.23.26.34.61.55.9.87-.51-.43-1.4-.17-2.14a.79.79,0,0,1,.2,0,.25.25,0,0,1,.21.09s0,0,0,0a1.06,1.06,0,0,1,.12.24l-.13.23a2.89,2.89,0,0,1,.33,1l-.14.21c.63,1.55,2,2.76,2,4.61l-.22.13a1.31,1.31,0,0,1-.24-.23l-.08-.12-.12-.18-.09-.18c0-.07-.07-.13-.1-.2s-.08-.17-.13-.26,0-.09-.07-.13-.08-.12-.11-.18L114,56a.86.86,0,0,0-.14-.13l-.11-.08a.85.85,0,0,0-.17-.06.58.58,0,0,0-.14,0h-.06a1.06,1.06,0,0,0-.29,0,.8.8,0,0,1-.19.44l-.49-.13a1,1,0,0,0,.24.41c-.28.24-.66.09-1,.24a3.6,3.6,0,0,0,0,.56l.24.07a5.64,5.64,0,0,0,1.49,3.62l.18-.18a2.18,2.18,0,0,1,0-.25c.37.31.49.83.92,1.09a2,2,0,0,0,.12-.5,1.15,1.15,0,0,0,.41.28c.19,3.51.22,4.05-.17,5-.5,0-.58-.15-.74-.64a.67.67,0,0,0-.43.18c-1.68-.13-1.53-2.57-3.28-2.6-.33.59-.07,1.26-.3,1.86l-.23.1A61.35,61.35,0,0,1,105.34,61c-.09-.14,0-.4.11-.54.21-.33.21-.33,0-2.41-.41-.27-.5-.32-.75-.46l-.2.14h0a.46.46,0,0,1-.21,0h-.23l-.19,0h-.07l-.28-.06-.09,0-.47-.11a2.37,2.37,0,0,0-.35.42,2.08,2.08,0,0,0-.76-.14h-.06l-.16,0A3.57,3.57,0,0,0,101,58a1.8,1.8,0,0,0-.22.06c-.26.08-.52.18-.78.28s-.47.19-.71.27l-.24.06a2.78,2.78,0,0,1-.69.12h-.15a2,2,0,0,1-.71-.12l-.27,0-.37.06a.58.58,0,0,1-.23,0l0,0a.67.67,0,0,1-.23-.13.46.46,0,0,1-.07-.07,2.16,2.16,0,0,1-.32-.34L95.9,58c-.07.07-.17.14-.23.21-.34.42-.08,1-.41,1.43s-1.2.52-1.59,1.09c-.11.16-.06.47-.07.67-.11,2.21-.11,2.21-.71,2.5a6.39,6.39,0,0,0-1.56,1.15c-.34.53-2.77,4.76-2.77,4.77-.1,1.13.64,2.08.66,3.18,0,.93-1.3,1.37-.88,2.44.62,1.61,1.49,3.11,2.23,4.66a1.69,1.69,0,0,0,.21.31l0,0c.09.12.2.24.32.37l.07.09.37.38.13.13.37.36.16.15.34.3.21.17.25.2.19.13.19.13a.34.34,0,0,0,.12,0,.55.55,0,0,0,.13,0h0c.53,0,1.07-.14,1.6-.24l1.33-.26.64-.11c.34-.06.67-.11,1-.15l.64,0a7.84,7.84,0,0,1,1.37,0,.53.53,0,0,1,.22.12c.4.34.11,1,.51,1.3s.9.17,1.34.31a1.66,1.66,0,0,1-.08,1.72c-1,2.36-1,2.36-.84,3,.24,1.06.57,2.51-.79,5.7-.62,1.47-1.82,2.55-2.64,3.88s-.85,2.74-1.56,4c-2.76,4.91-2.84,5-3.28,5.45a3.06,3.06,0,0,0-.78,1.19A2.74,2.74,0,0,0,93,109h.15a3.51,3.51,0,0,0,.79-.12h0a4.62,4.62,0,0,0,.76-.3l.13-.05.61-.34.11-.07.4-.26,2.19-1.54L101,104c.62-.65,1-1.5,1.66-2.12s1.79-1,2.54-1.77a21.44,21.44,0,0,0,3.65-5.58,23,23,0,0,1,3.8-5.06,20.94,20.94,0,0,0,3-5.75l-.29-.07h0l-.11,0h-.07l-.29.06c-.11-.15-.11-.15.12-2.18a16.79,16.79,0,0,0-.1-2.24c0-1.94.34-3.87.17-5.81l-.52-6.13c.12.19.12.19.25,1.08A1.05,1.05,0,0,0,115,68c1.26,4.62-.07,9.25.08,13.88l.32-.15.07,0,.14,0h0l.16,0c1.34-2.89,1.34-2.89,1.4-3.26,0,.08,0,.19,0,.27,0-.15.07-.36.09-.51l0-.17.14-1.07h0c.06-.49.14-1.1.25-2.76v.25C117.74,73,117.84,71.2,117.83,69.83ZM108.9,87.26l-.09,0c-.45-.17-1-.33-1.51-.49l-.17,0c-.55-.15-1.15-.3-1.79-.44l-.1,0,.38.09.49.11.55.15.43.11.51.15.39.11.47.16.33.11.48.19.26.1.66.3A13.21,13.21,0,0,0,108.9,87.26Zm-4.43-1.21.19,0-.87-.18h.06Zm.56.12.14,0h-.08l-.17,0Zm-2-.42.23,0h0l-.26,0Zm14.53-10.57c-.1-.21-.1-.21,0-2,0,.56,0,.56-.08.8-.14-3.77-.08-4.11,0-4.59a21.61,21.61,0,0,1,.27,4.72A5,5,0,0,1,117.51,75.18Z"/><path class="cls-4" d="M116.42,58.72a2.09,2.09,0,0,1,0,.21l.25,1.13V60c.09.67.22,1.33.35,2a31,31,0,0,0-1.1-5l-.28-.9c.59,2,.61,2.1.85,3.16C116.5,59.06,116.46,58.89,116.42,58.72Z"/><path class="cls-4" d="M115.52,55.54c0,.07,0,.13.08.19a6,6,0,0,1-.23-.72,2.25,2.25,0,0,1,.08.24l-.59-1.77v0a1.31,1.31,0,0,0-.11-.26c.24.7.52,1.58.93,2.82Z"/><path class="cls-4" d="M117.41,64.15c-.07-.73-.21-1.45-.35-2.16.09.55.18,1.21.3,2C117.38,64,117.39,64.09,117.41,64.15Z"/><path class="cls-4" d="M88.74,40.52a.08.08,0,0,1,0,0,5.61,5.61,0,0,0-.32,1.08c-.05.28,0,.42.06.53a.44.44,0,0,0,.32.09h.13a2.54,2.54,0,0,0,.34,0l.15,0a2.21,2.21,0,0,0,.52-.24,4.1,4.1,0,0,1,.41-.26c.17-.09.4,0,.53-.21s0-.35-.09-.72a1.57,1.57,0,0,0-.24-.43.4.4,0,0,1,0-.5.63.63,0,0,0,0-.45.76.76,0,0,0-.31-.4l-.2-.12c-.18-.08-.37-.12-.54-.2a.42.42,0,0,1-.19-.13h0s-1.18.29-.47.69a.37.37,0,0,0,.18,0,.67.67,0,0,1-.11.07,2.11,2.11,0,0,0-.69.45.49.49,0,0,0-.12.42.45.45,0,0,0,.25.26A1.71,1.71,0,0,0,88.74,40.52Z"/><path class="cls-4" d="M41.72,27.22h0c-.11.05-1,.58-1.06.64S40.76,27.86,41.72,27.22Z"/><path class="cls-4" d="M103.5,55.08c.09.1.28.05.32.22s0,.31,0,.47a.24.24,0,0,0,.16.16h0l.06,0h.07l.12,0,.09-.05.12-.11a.46.46,0,0,0,.07-.07.45.45,0,0,0,.08-.26.76.76,0,0,0,0-.15c0-.18-.09-.35-.12-.52s0-.38,0-.57-.15-.33-.25-.34a1.06,1.06,0,0,0-.73.43A1.3,1.3,0,0,0,103.5,55.08Z"/><path class="cls-4" d="M100.16,54.8a.85.85,0,0,0,.28.17l.1,0a.78.78,0,0,0,.23.06h0s.07,0,.11-.06l.22-.25c0-.09-.13-.16-.39-.19h-.27l-.13,0-.07,0a.26.26,0,0,0-.09,0l0,0S100.11,54.75,100.16,54.8Z"/><path class="cls-4" d="M103.43,52.79a.41.41,0,0,0,.08.14s.41.49.43.5a2.79,2.79,0,0,0-.07-1.14,2.32,2.32,0,0,0-.21-.63h0a.1.1,0,0,0,0,.06v0a2.36,2.36,0,0,0,0,.53.38.38,0,0,1-.15.33A.16.16,0,0,0,103.43,52.79Z"/><path class="cls-4" d="M114.3,63.12l.1,0h.17a4.59,4.59,0,0,0,.08-.59v0c0-.06,0-.06,0-.07h0l-.06,0-.13,0a.3.3,0,0,1-.15,0,2.09,2.09,0,0,0-.17-.14h0a.07.07,0,0,0-.06,0,.91.91,0,0,0,.17.69A.2.2,0,0,0,114.3,63.12Z"/><path class="cls-4" d="M36.64,31l0,0,.06,0c.28-.2.53-.44.82-.64.52-.36,1.08-.66,1.59-1,.12-.08.12-.08.27-.37l0,0a1.86,1.86,0,0,0-.46.25c.13-.11.13-.11.15-.21h0L39,29c-.64.27-.64.27-3.45,2.58a1.92,1.92,0,0,0-.64.78h0A10,10,0,0,0,36.64,31Z"/><path class="cls-4" d="M40.59,28.34a.55.55,0,0,0,.13-.05l.07,0,.31-.16c.87-.49,1.31-.68,1.31-.68a8.6,8.6,0,0,0,.84-.33c.22-.11,1-.67,1-.67s.16-.13.18-.16h0l-.11,0h0l-.07,0c-.25.14-.46.33-.71.47.3-.3.66-.54,1-.85h0a4.71,4.71,0,0,0-1,.66c0,.1-.16.36-.93.54l0,0,.06-.06,0,0c.11-.12.46-.18.32-.35,0,0-2.08,1-2.1,1.29h.06l.94-.51c-.1.16-.29.21-.43.33,0,0,0,0,.28-.13a1.67,1.67,0,0,1,.43-.19,15,15,0,0,1-1.37.72c-.15.06-.15.15-.07.16Z"/><path class="cls-4" d="M34.91,33.44a.5.5,0,0,0,.13,0,.43.43,0,0,1,.22-.06l0,0c-.07.18-.24.28-.33.45h0l.12,0A8,8,0,0,0,36.63,33a4.92,4.92,0,0,0,.67-.46,1.88,1.88,0,0,1,.5-.34l0,0a.71.71,0,0,0-.08.15,3.23,3.23,0,0,0,.6.18c.49-.17.49-.17,1-.71l0,0h-.09l0,0-.08,0-.07,0-.23.12a.4.4,0,0,1,.11-.15s0,0,.06-.05l.15-.12.09-.05.17-.08.11,0a.86.86,0,0,1,.17,0h.07a.18.18,0,0,0,.11,0s.26-.23.21-.44c-.25-.14-.36-.43-.22-.6A15.25,15.25,0,0,0,41,28.94a.49.49,0,0,0-.16-.05.14.14,0,0,0,0-.06h0a9.87,9.87,0,0,1-1.41,1.33c0-.24.19-.31.26-.48l0,0A6.67,6.67,0,0,1,39,30c.07-.11.19-.18.24-.3l0,0c-.32.1-.56.35-.87.47.19-.27.5-.39.72-.62-.19,0-2.72,1.65-2.66,2l.1.05c0,.08,0,.09-.35.27-.51.3-.53.36-.53.43l.07,0h0c.28-.06.51-.25.78-.31a1,1,0,0,1,.3,0h.3a3.45,3.45,0,0,1-1,.48c-1.32.39-1.45,1-1.21,1Z"/><path class="cls-4" d="M45.79,36.41l.07,0,.07,0,.13-.1.08-.06.12-.13.06-.07a.93.93,0,0,0,.11-.16s0-.07,0-.08h-.13a1.14,1.14,0,0,0-.49.19.41.41,0,0,0,0,.46Z"/><path class="cls-4" d="M43.84,75.67l-.06,0-.13-.11-.1-.05-.16-.07-.11,0a.35.35,0,0,0-.11,0h-.1c-.27.11-.11.54,0,.6l.18,0h.09l.18,0h0a.51.51,0,0,0,.17,0h.07c.07,0,.11-.07.1-.14A.27.27,0,0,0,43.84,75.67Z"/><path class="cls-4" d="M92,40.33s0,0,0,.08l.34,0A.93.93,0,0,0,92,40.33Z"/><path class="cls-4" d="M59.56,43.08H59.5a3.5,3.5,0,0,0-1,.91c-.44.54-.74,1.18-1.18,1.72-.23.3-.55.5-.76.81-.09.11,0,.15,0,.17a7,7,0,0,0,1.37.13,9.66,9.66,0,0,1,1.88.29,1.74,1.74,0,0,0,.22,0h.08l.15,0,.14,0h.07a.25.25,0,0,1,.2.09.63.63,0,0,1,.12.44c0,.06,0,.1.05.12h0l0,0h0c.21,0,.46-.43.49-.77a3,3,0,0,0-.8-1.86.55.55,0,0,0-.14-.13l-.05,0a.2.2,0,0,0-.11,0h0l-.16,0h-.08l-.43.08a.27.27,0,0,1-.2,0l-.05,0a.27.27,0,0,1-.09-.17c-.1-.37-.19-.43-.33-.51s-.08-.06,0-.13a1.73,1.73,0,0,1,.22-.31C59.46,43.5,59.6,43.21,59.56,43.08Z"/><path class="cls-4" d="M89.7,37.1c0,.27-.17.52-.06.79h.07l.08,0,.08,0a1.59,1.59,0,0,0,.39-.23.57.57,0,0,1,.24-.13s.07,0,.1,0c.37.21-.06.61.06.9a1.16,1.16,0,0,0,1,.77,2.55,2.55,0,0,1,.8.26c0,.1,0,.2,0,.29.17.29.45.48.59.79a.16.16,0,0,1,0,.14h-.12a.56.56,0,0,1-.15,0l-.07,0-.23-.1c-.12-.06-.12-.06-.46-.09.14.4.58.59.67,1,0,.23-.16.36-.47.5-.08,0-.21.1-.16.19s0,0,0,0l0,0,.1,0,.08,0,.17,0h.78l.24,0h.09a.86.86,0,0,1,.17,0l.06,0c.06,0,.1.06.11.11s0,.14-.09.16l-.09,0h-.2a.31.31,0,0,0-.15,0h-.06a.43.43,0,0,0-.13.09c-.16.15-.19.37-.32.52s-.41.31-.58.5v.06h.22l.62-.07h.08l.58-.07c.71-.09,1.43,0,2.14-.14h0l1.22-.41a.06.06,0,0,0,0,0,.38.38,0,0,0-.3-.12h-.34a.5.5,0,0,1-.21,0c-.13-.37.21-.7.07-1.07a2.9,2.9,0,0,0-.17-.35l-.07-.08A.38.38,0,0,0,96,41.4l-.07,0-.1,0h-.19a.5.5,0,0,1-.21-.05l-.12,0a1.14,1.14,0,0,1-.16-.15L95.08,41a1.36,1.36,0,0,1-.12-.17l0-.06-.06-.1,0,0H95l.24.05a1.21,1.21,0,0,0,.28.08h0s0,0,0,0v0a.75.75,0,0,0-.19-.19c-.57-.45-1.29-.67-1.82-1.18a4.78,4.78,0,0,0-.73-.76,2.58,2.58,0,0,0-1.26-.42h0c.31-.28.71-1.64-.12-1.67h0a3.45,3.45,0,0,0-.38,0l-.31,0h-.18l-.08,0h0a.1.1,0,0,1,0-.08c0-.27.46-.79.08-.81,0,0-1,0-1.19.38a.45.45,0,0,0,0,.12C89.42,36.52,89.65,36.78,89.7,37.1Z"/><path class="cls-4" d="M21.85,50.52c.13-.31.2-.64.32-1s.16-.37.23-.56a.19.19,0,0,0,0-.07s0,0,0-.08v0s0-.06,0-.06h0l0,0a4.1,4.1,0,0,0-.53,1.76Z"/><path class="cls-4" d="M82.93,30.26h0s0,0,0-.06a1,1,0,0,0-.42-.37l-.11,0a6.88,6.88,0,0,1-.91-.13,2.53,2.53,0,0,1-.36-.2.57.57,0,0,0-.23-.08h0c-.28.06-.55.18-.84.25s-.57.05-.84.14,0,.28-.19.35a.24.24,0,0,1-.22,0l-.12,0-.1,0-.08.05c-.05.25.17.53-.1.74a3.8,3.8,0,0,1-.81-.74.77.77,0,0,0-.27-.27l-.11-.06a1.47,1.47,0,0,0-.28-.14l-.13,0a1.59,1.59,0,0,0-.36-.06h0a.49.49,0,0,0-.3.08c.08.23.35.18.47.34-.08.33-.46.28-.62.51a.42.42,0,0,0,.18,0h0c.12,0,.25,0,.35,0h.19l.09,0,.08,0,.1,0,.08,0,.09,0,.08,0,.07.06,0,0a.16.16,0,0,1,0,.07s0,0,0,.05a.17.17,0,0,1,0,.1.11.11,0,0,1,0,.05.44.44,0,0,1-.13.15.32.32,0,0,0,.17.12l.06,0h.27l.12,0h.18c.28.08.28.18.28.42l.06,0h.3l.3,0,.36,0h.24c.26,0,.5.14.76.15h.11a4,4,0,0,0,.95-.18c.65-.15,1.65-.88,1.6-1.09s-.15-.23-.19-.36A.07.07,0,0,1,82.93,30.26Z"/><path class="cls-4" d="M44,74.18a.59.59,0,0,0,.24.16l.09,0,.29.09.11,0,.44.07h.06l.36,0h.39c.08,0,.13,0,.13-.07s-2.28-2.76-2.31-2.78a1.36,1.36,0,0,0-.23-.14l-.1,0a1.69,1.69,0,0,0-.3-.13l-.18,0-.43-.07-.21,0h-.08a2.57,2.57,0,0,0-2,.84s.08,0,.15,0h0a2.13,2.13,0,0,0,.37-.07.38.38,0,0,0,.1,0,2.22,2.22,0,0,0,.48-.2,1.59,1.59,0,0,1,.43-.17l.12,0a.77.77,0,0,1,.21,0,1.06,1.06,0,0,1,.2,0l.07,0c.07,0,.11.07.12.1a.15.15,0,0,1-.13.09.27.27,0,0,1-.21,0l0,0c0,.32.56.46.91.55.65.16.7.3.83.71a1.38,1.38,0,0,0,.25.5.82.82,0,0,1,.17.28C44.31,74.08,44.06,74.07,44,74.18Z"/><path class="cls-4" d="M46.82,76.38c.18.11,0,.45.3.48h.05a.29.29,0,0,0,.13,0s.07,0,.09,0a.49.49,0,0,0,.11-.14l.13-.17.06-.1a.37.37,0,0,1,.23-.12h0l.17,0,.59.07.35,0,.27,0h.71c.06,0,.1,0,.1-.08s-.16-.37-.1-.58a.23.23,0,0,0-.09-.22.67.67,0,0,0-.11-.07,1.14,1.14,0,0,0-.22-.12l-.2-.07a2.46,2.46,0,0,0-.29-.09,2.61,2.61,0,0,0-.27-.06l-.32-.07-.29,0L48,75l-.28,0-.28,0-.22,0h-.5l-.09,0s0,0,.05.1a.9.9,0,0,1,.31,1s-.11,0-.2,0l-.5-.06-.44-.07h-.34l0,0C45.9,76.15,46.4,76.15,46.82,76.38Z"/><path class="cls-4" d="M107.52,99.08c-1,1.22-1,1.23-1.59,1.45s-.67.41-1.43,1.52a3.37,3.37,0,0,1-.9,1,16.52,16.52,0,0,0-2.74,3h.28l.08,0,.06,0,.1-.07.06,0,.14-.12.08-.07.22-.2.07-.06.36-.34,0,0,.52-.49c1.28-1.23,2.42-2.61,3.65-3.9,0,0,0,0-.12.22a.88.88,0,0,0,.17-.19,11.64,11.64,0,0,0,1.32-2h0A4.62,4.62,0,0,0,107.52,99.08Z"/><path class="cls-4" d="M75.53,90.13c-.06-.35.41-.83,0-1.06a.54.54,0,0,0-.25-.06h-.06l-.25,0a.63.63,0,0,1-.19,0,.6.6,0,0,1-.19,0c-1-.23-1.69-1.11-2.67-1.41-1.45-.45-2.95-.71-4.43-1.08-.85-.31-.93-1.3-1.46-1.87-.9-.59-1.57-1.54-2.51-2.08-1.23-.7-2.74-.46-4-1.2-1-.58-1.61-1.57-2.65-2.07a2.34,2.34,0,0,0-.53-.17L54,78.88l-.61-.07a19.17,19.17,0,0,0-2.17-.15h0a10.33,10.33,0,0,0-1.16.07l-.24,0a4.87,4.87,0,0,0-1,.27l-.13.06a3,3,0,0,0-.72.47l-.13.11a2.58,2.58,0,0,0-.54.78l-.09.21a4.6,4.6,0,0,0-.29,1.15,2.15,2.15,0,0,0-.84-.3l-.31,0a6,6,0,0,0-.75,0H44l-.47,0a2.34,2.34,0,0,1-.38,0,2.22,2.22,0,0,1-.39-.1,2.15,2.15,0,0,1-.27-.1.87.87,0,0,1-.27-.27,1.83,1.83,0,0,1-.13-.16A1.54,1.54,0,0,1,42,80a4.19,4.19,0,0,0-.43-2.59,2.34,2.34,0,0,0-.79-.22l-.2,0-.17,0c-.11,0-.21,0-.32,0l-.73.07c-.25,0-.5.06-.75.08a3.33,3.33,0,0,1-.55,0c.39-1.28.39-1.28.11-1.87a7,7,0,0,0,.69-2.26l-.11-.08,0,0L38.52,73l-.05,0a1,1,0,0,0-.26-.11l0,0-.31,0h0l-.22,0-.07,0-.16.06-.08.06-.14.11-.09.09L37,73.3l-.09.14-.12.23a1.71,1.71,0,0,0-.07.18c0,.09-.07.19-.11.3l-.06.22c0,.13-.07.28-.1.43s0,.14,0,.23-.08.5-.11.8h-.08a.82.82,0,0,0-.3.07l-.05,0a2.59,2.59,0,0,0-.33.19l-.29.17-.05,0a.88.88,0,0,1-.32.07h-.08a.76.76,0,0,1-.37-.1,5.38,5.38,0,0,1-2.62-3c-.26-.85.46-1.52.45-2.33,0-.51-.71-.76-.53-1.35a8.54,8.54,0,0,1,2-2.46A.89.89,0,0,1,34,67l.15,0,.34,0h.17l.51,0h.1l.58.08.11,0,.34.06.1,0,.15,0,.2-.17c-.17-.2-.43-.26-.63-.42,0-.08,0-.18.06-.25a1.13,1.13,0,0,1,.3-.1l.24,0,.28,0,.37-.06.29,0,.38,0,.34-.05.43,0,.25,0,.4,0,.21,0,.57,0h0c1.56.83.61,3,2.1,3.88,1.77-1.86-1.06-3.51-.75-5.38S43.9,61.89,45,60.65h0l-.16-.18a1.79,1.79,0,0,1,0-.23l.23-.07c0-.08,0-.2,0-.28l-.23-.08.36-3.56c0,.53,0,2.13,0,2.13.17-.11.17-.11.32-2.44a2.91,2.91,0,0,1,.41.73c.32-.55.21-1.26.7-1.74l.16-.09.52-.28.07,0,.73-.38.08,0,.28-.13.14-.07.14-.06.07,0,.07,0c.2-1.83.2-1.83,1.22-2.79h.13l0,0,.08,0,.08,0,.12-.07.12-.06.21-.11.17-.1.27-.15.29-.17L52,50l.35-.2,1-.56-.1.21a1.56,1.56,0,0,0,.52.11h0v.26C52,51.08,52,51.08,52,51.44h0a1.51,1.51,0,0,0,.28,0l.26,0,.36-.14.33-.12.39-.2L54,50.7l.39-.26.36-.24c.13-.1.24-.21.36-.31s.21-.17.31-.27.18-.22.27-.34a2,2,0,0,0,.23-.28,1.52,1.52,0,0,0,.16-.4,1.22,1.22,0,0,0,.1-.24,1.09,1.09,0,0,0,0-.62c-.5.33-.52.94-.82,1.39l-1-.27a.9.9,0,0,0,.45-.34h-.1a1.53,1.53,0,0,1-.48,0h-.11a1.07,1.07,0,0,1-.23-.07.39.39,0,0,1-.25-.44c0-.08,0-.08,0-.09h0a.85.85,0,0,0,0,.67c-.45-.21-.52-.44-.7-1a1,1,0,0,1-.63-.41c.63-.17,1.09-.3,1.22-.93a.34.34,0,0,0-.26-.14h0l-.2,0-.08,0-.24.12-.12,0-.48.27,0,0-.72.43-.33.21-.69.42-.41.26-1.26.79c3.1-3.23,3.1-3.23,6.28-4.19a.73.73,0,0,0,.39.09h0a2.67,2.67,0,0,0,.52-.07l.19-.05.43-.13.26-.1.42-.18.27-.13c.14-.07.27-.13.4-.21l.26-.14.36-.23.22-.15L59,43l.15-.13a1.35,1.35,0,0,0,.28-.34c-.16-.39-.16-.39.08-1l-.15-.23-.78-.16h-.23a3.34,3.34,0,0,0-1.49.62c0-.06-.06-.15-.09-.21.26-.37.38-.42,1.34-.79-1.87.16-3.69.31-5.69.52,1.84-.2,3.44-.34,5.71-.53a.31.31,0,0,0,.15-.1s0-.08-.1-.15l-.08-.06a1.4,1.4,0,0,0-.22-.14l-.16-.07a1.89,1.89,0,0,0-.31-.1l-.21,0-.14,0a1.72,1.72,0,0,0-.44.06l-.2,0-.12,0c-.07-.18.08-.38-.05-.56s-.53-.17-.71-.41,0-.19.12-.39.21-.29-.25-1.1L55,37l-.12-.2-.19-.32-.1-.14-.14-.17-.08-.08a.3.3,0,0,0-.11-.06l0,0,0,0c-.07,0-.14.06-.21.16l0,.08c-.07.11-.15.26-.26.45s.14.34,0,.51-.46,0-.61.22c-.36.49-.36.49-.46.52a1,1,0,0,1-.38,0l-.15,0a1.13,1.13,0,0,1-.24-.08l-.16-.07-.29-.14a2,2,0,0,0-.38-.14A2.31,2.31,0,0,1,51.44,36a1,1,0,0,0-.28,0H51a1.11,1.11,0,0,1-.48,0c-.08,0-.12-.08-.22-.24s-.11-.19-.9-.45a.55.55,0,0,0-.22,0H49a16.05,16.05,0,0,0-2.19.32c.13.66-.69,1.26-.14,2-.1.32-.53.43-.55.81s.42.7.44,1.13c0,0,0,1.73-1,2-.21.05-.7.2-.6.57,0,.06-.07.08-.27.23-.26,1,.39,2.24-.74,3-.35-.54-1-.7-1.47-1a1.64,1.64,0,0,0,0-1.42l.28-.23s0-.13,0-.17l-.25,0h0a.77.77,0,0,0-.33-.18l-.12,0h-.24l-.26,0-.24,0a1.3,1.3,0,0,1-.34,0c-.51-.14-.77-.66-1.26-.83a1.43,1.43,0,0,0-.28-.07h-.19a1.36,1.36,0,0,0-.46.13,2.78,2.78,0,0,1-.5.23c-.14-.11-.14-.11-.31-1.13-.06-.35-.06-.35-.9-.42-.19-1.08,2.46-3,3.58-3.88-.12-.35-.5-.2-.72-.37,2.2-.39,2.2-.39,3.45-1.72l-.48.08h-.12a1.91,1.91,0,0,1-.24,0,1.26,1.26,0,0,1-.27,0l-.14,0a4.47,4.47,0,0,1-.47-.22c.82-.3,1.87.22,2.49-.74a.49.49,0,0,0-.24-.08L44,33l.07-.06a.63.63,0,0,1,.36-.13.46.46,0,0,1,.29.07c1.42-.51,1.42-.51,1.8-.84a1.49,1.49,0,0,0,.23-.27c.15-.26-.1-.54,0-.8s.42-.21.59-.39a2,2,0,0,0,.18-.4l-.07-.06,0,0a.4.4,0,0,0-.12-.1l-.09-.06a.8.8,0,0,0-.16-.08l-.1,0a.58.58,0,0,0-.19,0l-.08,0h-.13l-.16.07-.09.06a1.57,1.57,0,0,0-.15.19l-.07.1a2.75,2.75,0,0,0-.17.49,1.65,1.65,0,0,0-.4.36l-.08.1c-.13.15-.26.32-.38.48a4.38,4.38,0,0,1-.35.38l-.05,0a.79.79,0,0,1-.39.17h-.15l-.07,0a.73.73,0,0,1-.29-.17c.07-.53,1.15-.88.65-1.4-.57.21-.8.79-1.23,1.16-.1-.29.49-1.05.49-1.05s0,0-.54,0c.89-1.42.89-1.42.89-1.59l-.14-.1c.51-.78.51-.78,2.87-2.17H46.6l-.22,0c-1.89.44-4.44,4-4.46,4s0,.1.06.13c.21,0,.4,0,.6,0,0,0,0,.08,0,.12a2.07,2.07,0,0,0-.67.43v.1h0l.13,0c-.41.69-1.29.92-1.61,1.69-.31-.32-.31-.32.27-.94l-.2,0h0a.32.32,0,0,0-.17.06l-.09,0-.24.17-.13.1-.55.42-.1.06-.07,0-.19.06-.15,0-.31,0h-.27a4.81,4.81,0,0,1-.66,0c-.08-.12-.07-.29-.16-.41-1.07.28-1.39.9-2,2.14-.11-.31.16-.57.13-.87a1.39,1.39,0,0,0-.41.12l-.35.15-.15.06-.27.09a.86.86,0,0,1-.17,0,1,1,0,0,1-.34,0c.26-.26.69-.36.79-.78l-.11-.06a.56.56,0,0,1-.24.07h0a1.8,1.8,0,0,1-.29,0,1.71,1.71,0,0,0-.18-.2c-.3.06-.46.31-.69.47a2.13,2.13,0,0,1,.16-.25,2.07,2.07,0,0,0-.41.36,2.67,2.67,0,0,1,.54-.78c-.7.64-.7.64-2,1.73h0c.4-.39.84-.74,1.25-1.12a21.8,21.8,0,0,0-2.06,1.83,1.7,1.7,0,0,1,.15-.22l-2.36,2.64a47.23,47.23,0,0,0-4.45,6.29v0l.06-.1a12.3,12.3,0,0,0-1,2.9l-.2.6.14.22a17.17,17.17,0,0,0-.59,2.46,1.93,1.93,0,0,0,.12,1,1.24,1.24,0,0,0-.23,0q-.07,0-.09,0s0,0-.06-.13-.07-.25-.12-.26h0a2.43,2.43,0,0,0,0,1,.46.46,0,0,0,.16.24l0,0a.27.27,0,0,0,.13,0h0a.32.32,0,0,0,.17-.19.73.73,0,0,0,0-.22,1.1,1.1,0,0,0,0-.18h0A2.86,2.86,0,0,1,22.73,53l-.42-.22c-1.52,1.9-2,11.4-1,13.18.13,0,.13,0,2.34,4.54h-.53c.27.56,2.22,3.07,2.23,3.1.18-.26.36-.53-.53-1.8-.41-.58-.87-1.23-1.65-4.39a2.45,2.45,0,0,1,1.21,1.77,4.27,4.27,0,0,0,.39,1.19c.39.63.88,1.2,1.3,1.82.55.8,1.49,1.25,1.95,2.13.37.71.19,1.66,1,2.19a1.66,1.66,0,0,0,.38.18c.22.08.49.24.72.3.78.2,1.59.32,2.38.51a1.83,1.83,0,0,0,.47,0H33l.36,0,.4,0a2.81,2.81,0,0,1,.41,0h.16a1.42,1.42,0,0,1,.55.18c1.82,1,1.82,1,2.45,1.1l.32,0a3.31,3.31,0,0,1,1,.28,2.85,2.85,0,0,1,.3.16,5.45,5.45,0,0,1,.58.33c.12.08.24.18.36.27l.45.36.56.49.49.42.5.41c.11.09.23.16.35.24s.32.23.49.33.27.11.41.17a4.18,4.18,0,0,0,.53.21c.14,0,.31,0,.47.07a4.34,4.34,0,0,0,.52.07h.15a2.63,2.63,0,0,1,.27-.39.39.39,0,0,1,.08-.1l.17-.17.09-.07a.6.6,0,0,1,.15-.09l.09,0,.14,0h.07a.43.43,0,0,1,.22.06h0a1.21,1.21,0,0,1,.23.18l0,.06c.06.07.11.15.17.23l0,.06.18.34a.2.2,0,0,0,0,.08l.12.31a.69.69,0,0,1,0,.1c.05.13.09.26.13.39l0,0c0,.12.07.23.1.34l0,.1c0,.11.06.23.09.33.09.41.09.41-.69,2.12,0,0-.76,3.12-.44,3.7,0,.09.12.22.18.31a67.14,67.14,0,0,0,5.26,5.7c1,.88,2.41,1.09,3.49,1.86a5.19,5.19,0,0,1,1.74,3.28c0,.06,1.62,7.28,4.42,11.22.33.46.65.86,1,1.23.07.07.13.15.19.22.31.34.61.64.91.91l.17.15c.28.23.55.45.81.63l.11.08a9.21,9.21,0,0,0,.81.49l.17.09c.26.12.5.23.73.31a.32.32,0,0,0,.09,0,5.69,5.69,0,0,0,.6.18l.1,0a4.39,4.39,0,0,0,.52.09h.1l.39,0h.35c-3.31-1.7-3.31-1.7-3-3.11-.46-.49-.46-.49-1.33-2.88l.09,0h.67c0-.06,0-.06-.76-1.11.58-.52.58-.52.53-.93l.15-.09a1.32,1.32,0,0,0,.42.07c.05,0,.08,0,.13,0l.18,0a.59.59,0,0,0,.23-.14.47.47,0,0,0,.1-.1.72.72,0,0,0,.1-.24s0-.07,0-.1a.51.51,0,0,0-.07-.33l-.31-.43c2.34-.06,3.33-5.71,3.34-5.77a3.12,3.12,0,0,1,1.58-1.3c.83-.34.84-1.32,1.43-1.85a.78.78,0,0,1,.34-.19l.11,0a1,1,0,0,1,.25,0l.2,0h0a.19.19,0,0,0,.11-.05l0,0a.56.56,0,0,0,0-.2c.09-.71,0-1.43.06-2.14,0-.39-.21-.8,0-1.19s.42-.61.21-.91a.54.54,0,0,1-.1-.2,4.84,4.84,0,0,0,2.65-2.85v-.08C75.77,90.53,75.58,90.36,75.53,90.13Zm-7,8.52c0-.34-.15-1.46-.33-3.45.11,1.16.22,2.31.34,3.53C68.5,98.7,68.49,98.68,68.49,98.65Z"/><circle class="cls-5" cx="68.33" cy="68.46" r="56.19"/><circle class="cls-6" cx="68.33" cy="68.33" r="63.1"/></g></g></svg>