<svg xmlns="http://www.w3.org/2000/svg" viewBox="0 0 796.43 136.66"><defs><style>.cls-4{fill:#005680}</style><radialGradient id="radial-gradient" cx="68.33" cy="68.33" r="68.33" gradientUnits="userSpaceOnUse"><stop offset=".43" stop-color="#009de2"/><stop offset=".49" stop-color="#009de2" stop-opacity=".97"/><stop offset=".56" stop-color="#009de2" stop-opacity=".89"/><stop offset=".66" stop-color="#009de2" stop-opacity=".75"/><stop offset=".76" stop-color="#009de2" stop-opacity=".56"/><stop offset=".87" stop-color="#009de2" stop-opacity=".32"/><stop offset=".99" stop-color="#009de2" stop-opacity=".03"/><stop offset="1" stop-color="#009de2" stop-opacity="0"/></radialGradient></defs><g id="Layer_2" data-name="Layer 2"><g id="Layer_1-2" data-name="Layer 1"><text transform="translate(143.82 99.05)" font-size="86.33" fill="#1d345d" font-family="MuseoSansRounded-300,Museo Sans Rounded" font-weight="300">Fresh<tspan x="206.83" y="0" fill="#009ee2" letter-spacing="0">Air</tspan><tspan x="307.83" y="0" fill="#1d70b7">Holdings</tspan></text><path class="cls-4" d="M50 30.61s0-.06-.08-.06h-.06s-.65.17-.76.46.2.59.3.66h.07s.06 0 .09-.05 0 0 .08-.05a1 1 0 0 0 .12-.15l.06-.09.1-.2v-.06L50 31a.56.56 0 0 0 .05-.31s0-.06-.05-.08zm-2.81-4.35h.07s3.56-.36 4.49-1.29c.26-.25-.37-.28-.38-.28h-.59l-.18.05h-.12c-.54.17-1.15.38-1.34.46a.52.52 0 0 1-.17 0 .44.44 0 0 1-.22-.09c0-.05-.07-.1 0-.13a.37.37 0 0 1 .18-.08c.57-.16.29-.34.23-.34H49a1.09 1.09 0 0 1-.24.07 1 1 0 0 1-.24 0h-.26l-.32.06a1.11 1.11 0 0 0-.36.39.48.48 0 0 0 .22-.05l.22-.07H48a.27.27 0 0 1 .14 0c.09.06-.19.42-.21.43s-.41.22-.57.4l-.15.2v.06c0 .06-.03.2-.02.21zm64.42 35.2l.26.15.14.07.26.1h.37l-.43-.55a.39.39 0 0 0-.19-.12c-.14 0-.29 0-.42-.08l-.21-.08h-.06c-.11 0-.14.1-.07.21a.69.69 0 0 0 .23.21zm-66.3-26.54a1.46 1.46 0 0 0 .22 0 .77.77 0 0 0 .25 0 .22.22 0 0 0 .09-.08.28.28 0 0 0-.07-.27c-.09-.08-.2-.13-.28-.21a2.84 2.84 0 0 0-.37-.47l-.08-.06c-.16-.1-.36-.08-.52-.18s-.1-.2-.2-.26h-.05a5.32 5.32 0 0 0-.66.8l-.2.3-.54.87c.32 0 .32 0 .35.19a.89.89 0 0 0 0 .17 1.29 1.29 0 0 0 .3-.23 2.42 2.42 0 0 1 1.17-.62 2.37 2.37 0 0 1 .59.05zm-.26.6a.07.07 0 0 0-.06 0h-.1a3.52 3.52 0 0 0-.94.34c-.14.1-.16.4-.08.46h.28l.21-.1.14-.07.23-.15.11-.08a1 1 0 0 0 .23-.22.12.12 0 0 0 0-.1zm10.09 10.16h-1.59c-.29.1.36.42.5.48a1.41 1.41 0 0 0 .49.15h.25a.62.62 0 0 0 .27-.07h.07l.08-.08v-.09zm-3.49 30.98h-.37c-.26.18.08.53.41.58h.99s0-.13-.59-.3zm-6.74-50.54h.19a1.91 1.91 0 0 0 .31-.18c.23-.16.2-.21.16-.22h-.07a3.21 3.21 0 0 0-.3.14l-.32.26zm-.19-.59a.91.91 0 0 0 .19-.13 2 2 0 0 0-.25.12s-.06.05-.05.06a.36.36 0 0 0 .11-.05zm1.4-.67l.24-.08.29-.14.23-.13a13.74 13.74 0 0 0-1.41.63l.33-.14a2.15 2.15 0 0 1 .32-.14zm-1.65.89h.08l.15-.07.17-.07a.31.31 0 0 1 .1 0l.2-.1.16-.09.3-.14.29-.13h-.02a5.57 5.57 0 0 0-1.53.76zm1.68-.53h.05l.08-.08a1.66 1.66 0 0 0 .14-.13 1.89 1.89 0 0 0-.47.28v.11a2.36 2.36 0 0 0 .2-.18zm-2 1.47l-.13.05a2.41 2.41 0 0 0-.43.29 2.17 2.17 0 0 0 .55-.25s.05-.08.01-.09zm.36.83h-.2l-.52.1a3.36 3.36 0 0 0-1 .51h.18c.06 0 .06.09 0 .12a4.54 4.54 0 0 1-.62.46h-.08c0-.13.13-.18.13-.29a1.31 1.31 0 0 0-.56.36c0 .1.08.19.1.29a.53.53 0 0 1 0 .12 1.46 1.46 0 0 0 0 .22h.33l.27-.13.19-.1.3-.18.17-.11a1.93 1.93 0 0 0 .35-.28.93.93 0 0 0 .15-.26.39.39 0 0 0 0-.14 2.75 2.75 0 0 0-.41.11c.27-.18.57-.3.85-.49.03 0 .37-.29.37-.31zm-3.33-.05c.51-.23.93-.59 1.43-.83l-.53.34 1.7-1a.53.53 0 0 0 .13-.11h-.06a31.22 31.22 0 0 0-3.27 1.87c.25 0 .41-.24.63-.35zm.01 3.53l-.11.07a8.11 8.11 0 0 1-.62.55c-.4.24-.52.32-.54.37h.28a.06.06 0 0 1 .06 0c.05 0 0 .12.11.14h.05a.72.72 0 0 0 .19 0 2 2 0 0 0 1-.41c.08-.09-.11-.45-.12-.45a.52.52 0 0 0-.3-.27zm.96-2.86h-.11a1.3 1.3 0 0 0-.64.36h.11v.19a2.7 2.7 0 0 0 .53-.4c.14-.07.18-.14.11-.15zM62 20.46a13.89 13.89 0 0 0-3.87 1 .14.14 0 0 0 .09 0h.31a2.71 2.71 0 0 1-1.24.57 17.17 17.17 0 0 0-1.84.61.5.5 0 0 0-.1.23v.06a.25.25 0 0 0 0 .12.41.41 0 0 0 .07.11h.07l.1.07h.09l.1.05h.18l.19.05 1-.07h2.09a.29.29 0 0 1 .08 0l.07.06s1.42 1.57 1 2.41c-.18.35-.18.36-.17.41s.25.19.31.34 0 .51.13.74a2.18 2.18 0 0 0 .47-.21 1 1 0 0 1 .43-.14.63.63 0 0 1 .29.05.69.69 0 0 1 .43 1c-.33.4-.93.38-1.23.82a1.86 1.86 0 0 0-.2 1.3c.05.19 2.4 4.16 3.53 4.54-.57-8.27-1-12-1.55-13.81.51 1.57.93 4.65 1.55 13.81l1 .18h.28l.46.08h.97a.88.88 0 0 0 .23 0 .31.31 0 0 0 .11-.09 14.64 14.64 0 0 0 .81-2.93c.07-.38-.13-.78.09-1.14.11-.19.13-.2.83-.41 2.22-.67 2.22-.67 2.27-1.09s.1-.67.5-.88c1-.49 2.08-.56 3-1.05a9.46 9.46 0 0 0 1.19-.6s.19-.14 0-.43-.83-.67-1.15-1.11a4.92 4.92 0 0 1-.34-.93c-.16-.35-.08-.45.11-.65s.09-.39-.48-.72c-1.84-1.09-1.85-1.11-2-1.36v-.07h.1c-.54-.52-1.63-.11-1.89-1.11l-.19-.09v-.15h.08l-1-.08h-1.17a1.34 1.34 0 0 1-.2 0 1.65 1.65 0 0 1-.44-.1 2 2 0 0 0-.49-.11H65c-.88.05-.88.05-1 .12a9.19 9.19 0 0 0-1.42.14 3.58 3.58 0 0 1 .73.08h-1zm-6.43.99h-.45l-.21.06h-.14l-.22.06h-.14l-.24.08h-.08l-.19.08h-.06a.36.36 0 0 0-.13.09h.19l.22-.05h.07l.41-.1-.44.16c.46-.1 2-.51 2.19-.58a25.11 25.11 0 0 1-2.62.77.59.59 0 0 0-.33.15.9.9 0 0 1-.23.47h-.13a1.77 1.77 0 0 0-.2 0h-.19l-.32.11-.18.08-.3.15-.12.06-.2.11c.11 0 .22 0 .32.09a2.87 2.87 0 0 0 .69-.21 4.89 4.89 0 0 1-.54.26h-.11l-.18.05h-.06a.27.27 0 0 1-.12-.05c-.64 0-.68.26-.7.38-.36.24-.83.26-1.16.58v.05h.48l.37-.07a3.48 3.48 0 0 0 .62-.21 2.17 2.17 0 0 1 .56-.13 1.41 1.41 0 0 1 .29 0c0 .1 0 .1-.15.19H52a1.36 1.36 0 0 0 .34-.08h.06a3 3 0 0 0 .41-.18 2.5 2.5 0 0 0 .34-.24c.08-.08.13-.16.1-.23h-.13a4.29 4.29 0 0 1 1-.65c1-.25 1.39-.63 1.4-.72a6.15 6.15 0 0 0 1.69-.56h-.24l2.27-.7c-.56.08-.59.08-.8.1.54-.15 1.09-.23 1.62-.37-.52 0-1.38.11-1.39.11s-2.1.36-2.54.53a.14.14 0 0 0 .08.07.48.48 0 0 1-.18 0 .73.73 0 0 1-.2 0h-.15z"/><path class="cls-4" d="M46.24 25.5a1.13 1.13 0 0 1-.12.18 1.48 1.48 0 0 1-.29.25l.07-.18v-.08h-.13a.65.65 0 0 0-.25.17h.06a3.82 3.82 0 0 1-.74.34h.06c.06 0 0 .06 0 .08h.06l.15-.05h.06l.37-.12c-.22.12-.8.44-.84.59s.79-.29.88-.35.07 0 .51-.42a.15.15 0 0 1 0 .07c.21-.19.21-.19.74-.63.11-.09.12-.1.14-.13H47a7.39 7.39 0 0 0-.76.25v.03zm7.54 5.5a.55.55 0 0 1 .18.08s.08 0 .12.06a1.86 1.86 0 0 1 .22.19l.12.1.2.23.07.08a1.25 1.25 0 0 1 .12.14 2.37 2.37 0 0 0 .25.29h.07s.1.09.15.09c.45-.08 1.11-1.77 1.11-1.79a.36.36 0 0 0 0-.18l-3.24-.73a4.56 4.56 0 0 1 1-.48c.34-.15.51-.23.5-.32A3.76 3.76 0 0 0 53 27.4h-.4a.9.9 0 0 1-.39-.07c-.25-.12-.22-.53-.56-.56h-.28l-.22.06h-.16l-.27.09-.13.05-.39.14-.26.1h-.33a2.86 2.86 0 0 1-.1-.91.68.68 0 0 0-.22 0 2.66 2.66 0 0 0-.39 0h-.11l-.28.05c-1 .23-3.88 2.66-3.33 3a.74.74 0 0 0 .31.12h.12a3 3 0 0 0 .31 0h.6a4.18 4.18 0 0 0 .51-.07h.11l.31-.07h.09a.91.91 0 0 0 .23-.07c0-.15-.06-.26.75-.35s.79-.24.86-.35a5.75 5.75 0 0 1 .62.48c.23.25.33.59.55.86s.93.3.93.91c0 0-.14 1.39-2.05 2a8.68 8.68 0 0 0-1.74.43.33.33 0 1 0 0 .65h.09a1.7 1.7 0 0 0 .28 0h.16a7 7 0 0 0 .69-.19l.34-.11h.06a1.45 1.45 0 0 1 .28 0h.59l.28.11h.1l.49.22c-.11.11-.11.11-.66.32a.88.88 0 0 0 .18.1h.09l.22.08h.13l.28.08h.13l.46.09.43.06h.72a1.14 1.14 0 0 0 .44-.07c0-.07 0-.07-.14-.13a10.79 10.79 0 0 1-1.1-1 2.74 2.74 0 0 1 1.53.5.41.41 0 0 0 .18.1c.26-.08.69-1.06.48-1.28-.45-.47-1.3-.41-1.55-1.14s.89-.63.91-.63zM43.2 26.4h.09l.21-.11.09-.07a2.29 2.29 0 0 0-.39.18zm17.91 1.83l.49-.1s.13-.06.16-.15a.14.14 0 0 0 0-.13c-.05-.08-.14-.1-.19-.17a.16.16 0 0 1 0-.1h-.24c-.22.05-.85.41-.51.63a.59.59 0 0 0 .26.06z"/><path class="cls-4" d="M50.32 26.84h.13l.31-.06.15-.05.27-.09h.09l.14-.06s-.06 0-.13-.07h-.08l-.2-.15h-.13a.78.78 0 0 0-.22 0h-.5c-.44.08-.3.38-.2.47a.53.53 0 0 0 .3.08zm-2.38-2.64a2.49 2.49 0 0 0-.42.19h.06a1.33 1.33 0 0 1 .36-.05H48c0 .08-.13.07-.15.15a.59.59 0 0 0 .19 0l.15-.06a2.11 2.11 0 0 0 .57-.53h-.13a.2.2 0 0 1 .11-.09.47.47 0 0 0 .12-.07 6.37 6.37 0 0 0-1 .41H48a.34.34 0 0 1 .14 0s.01-.03-.2.05zm-1.88 2.07c-.09.06-.12.08 0 .17a.25.25 0 0 0 .13 0h.21a1.08 1.08 0 0 0 .37-.21c.15-.13.46-.45.32-.46h-.06a6.37 6.37 0 0 0-.97.5zm4.25-2.33h-.07l-.59.2c-.23.07-.47.11-.7.18l-.3.11h.79l.3-.08a1.31 1.31 0 0 0 .51-.25zm-1.66.35c.08 0 .77-.3 1-.39s.11-.06.11-.1-.06 0-.07-.06 0 0 0-.06h-.09l-.11.06c-.15.1-.25.28-.43.34s-.37.1-.41.21zm1.35-.92a1.56 1.56 0 0 0 .24-.1c.49-.25.49-.25.5-.27h-.05s-.49.16-.63.23-.11.14-.11.14zm.85-.23h.37l.25-.06h.1a1.64 1.64 0 0 1-.33.13 4.06 4.06 0 0 0-.75.27c-.12.07-.13.22-.08.25h.14l.22-.07c.15 0 .3 0 .44-.06.35-.12.65-.35 1-.5s.43-.12.64-.22h-.16l.11-.06c.29-.13.29-.14.3-.17s-.07 0-.1 0 .15-.09.13-.19.16-.1.22-.18h-.06a16.06 16.06 0 0 0-1.74.65h.16a1.48 1.48 0 0 1-.46.16 1.14 1.14 0 0 0-.58.31h.06zm66.98 46.69c-.08-1.41-.15-3.28-.29-4.68-.07-.42-.12-.8-.18-1.16a37 37 0 0 1-1-5.22c-1.61-5.35-1.61-5.35-1.64-5.61a30.91 30.91 0 0 0-1.6-3.91L111.43 46a7.07 7.07 0 0 0-1.84-1.7 6.42 6.42 0 0 1 1.84 1.7c-.66-1.08-1.51-2.55-2.22-3.6a48.54 48.54 0 0 0-5-6.23l-2-2-.23-.21a10.29 10.29 0 0 0 1 1c-.16-.09-.28-.2-.43-.3a5.16 5.16 0 0 0 1 1l-.08.06c-1.39-1.14-2.58-2.52-4-3.64a18.15 18.15 0 0 0 2 1.44 20.89 20.89 0 0 0-3.74-3 7.82 7.82 0 0 1-1.24-.82l.19.08a3.05 3.05 0 0 0-.45-.31l-.08.05a3.93 3.93 0 0 1-.93-.55l.2.07c-.12-.28-1.36-.84-1.45-.87a1.13 1.13 0 0 0 .26.38c-.43-.15-.64-.6-1.07-.75.08.19.29.28.37.48-.15.34-.15.34-.13.54a16.79 16.79 0 0 0 1 2.09c.74 1.14.72 1.54.71 1.58-.15 1.06-.15 1.06-.73 1.48-.21.16-.21.23-.09.51 0 0 0 .06.06.15v.1c0 .09.08.17.14.28l.1.2.18.34.15.24.22.35.18.25a2.85 2.85 0 0 0 .25.33l.21.23.27.25.22.16a1.92 1.92 0 0 0 .29.14 2 2 0 0 0 .23.06h.1a.8.8 0 0 0 .36-.09c.47-.21.24-1 .12-1.35a34 34 0 0 1 3.19 3.47c.22.38.44.74.84.75a2.92 2.92 0 0 0-.13-1.63c-.58-1.06-.45-1.18-.16-1.45 0-.26 0-.35-.76-.85-.35-.41-.35-.41-1.11-1.54-.26-.43.18-1-.22-1.39A11 11 0 0 1 98 32.35l-.06-.14v-.08a5.54 5.54 0 0 1 1.76 1.25h-.1c1 2.22 1 2.22 1.94 3.1s2.08.65 2.9 1.41a1.85 1.85 0 0 1-.39-.15h-.08a2.68 2.68 0 0 0 .18.28 9.08 9.08 0 0 0-1.44-.41 17.38 17.38 0 0 1 1.75 2.16.55.55 0 0 1-.32-.13.93.93 0 0 1-.13-.15l-.17-.18a1 1 0 0 0-.17-.19h-.13a.4.4 0 0 0-.19-.07v.09s.65 1.2.72 1.29.53.67.5.92h-.4c0 .1-.06.22-.1.32v.07h-1.29a.66.66 0 0 0-.19 0v.08l-.21.13a3.67 3.67 0 0 0-1.13-.38l.73.13a1.14 1.14 0 0 0-.33-.19h-.17a1.38 1.38 0 0 0-.45-.09h-.24a.18.18 0 0 1-.09 0l-.14-.13-.07-.07-.32-.35A3.05 3.05 0 0 1 99.14 39c0-.25-.36-1.28-.63-1.31h-.42l-.14.07-.09.05a.2.2 0 0 0 0 .22 18.27 18.27 0 0 0 1.79 2.76 1.69 1.69 0 0 1 .31.4s0 .05-.26.09l-.51.08-.15.21h-.86l-.12.11a8.1 8.1 0 0 0 .39 1.38l-.14.23h-.39a1.21 1.21 0 0 0-.3 0h-.08l-.28.09.3.75a2.51 2.51 0 0 1-.57.28 1.46 1.46 0 0 1-.12.54 1.71 1.71 0 0 1-1.24-.38c.09.15.21.34.31.48s0 .17-.08.25a3.31 3.31 0 0 1-.53.18c-.38-.24-.38-.24-1-.25l-.11.23c.15.14.35.32.51.45a1.59 1.59 0 0 0-.21.15 4.14 4.14 0 0 1 3 4.69c-1.69-.12-3.32-.63-5-.8a3.72 3.72 0 0 0 .33.45s.19 4.55.77 4.72c-.16 1.39-.16 1.39-.19 1.52h1.27a2.81 2.81 0 0 1 .65.07c.2.8.2.8.21.82l2.75-.92c.76-.09 1-1.06.54-1.71.44-1.81.46-1.81 1.6-2.26 0-1.46 0-1.46.14-1.56a.48.48 0 0 1 .37-.14.76.76 0 0 1 .28.09l.2.11.19.09a.67.67 0 0 0 .33.1l.28-.46.09-.11a1 1 0 0 1 .25-.26h.06a.5.5 0 0 1 .34-.07h.08a1.08 1.08 0 0 1 .42.24s3.88 4.44 4.26 5.68c.28.93.15 1-1.47 1.17a8 8 0 0 0 1.31 1.39c.13-.44-.14-.86-.06-1.3h.24c.21-.3.29-.66.48-1a3.18 3.18 0 0 1-.24-1.14l.25-.07.33.45c-.08-.4-.08-.4-1.38-2a1.83 1.83 0 0 1 .06-.25c-.62-.27-1.1-.49-2.73-3.82a.89.89 0 0 1 .38-.31l3.69 4.34 1.11 3.19 1.17 2.68a4.73 4.73 0 0 0 0-.52 10.34 10.34 0 0 0-.37-1.84c-.4-2-.4-2-.21-2.14a1.87 1.87 0 0 1 1.26 1.1 3.31 3.31 0 0 0 .22-.47h.26c.24-1.81-1-3.38-.83-5.19a.71.71 0 0 1 .21 0 .92.92 0 0 1 .26 0l-.1.23a1.9 1.9 0 0 0 .58.49 1.39 1.39 0 0 1 0 .82c.23.26.34.61.55.9.87-.51-.43-1.4-.17-2.14a.79.79 0 0 1 .2 0 .25.25 0 0 1 .21.09 1.06 1.06 0 0 1 .12.24l-.13.23a2.89 2.89 0 0 1 .33 1l-.14.21c.63 1.55 2 2.76 2 4.61l-.22.13a1.31 1.31 0 0 1-.24-.23l-.08-.12-.12-.18-.09-.18c0-.07-.07-.13-.1-.2s-.08-.17-.13-.26 0-.09-.07-.13-.08-.12-.11-.18l.03.05a.86.86 0 0 0-.14-.13l-.11-.08a.85.85 0 0 0-.17-.06.58.58 0 0 0-.14 0h-.06a1.06 1.06 0 0 0-.29 0 .8.8 0 0 1-.19.44l-.49-.13a1 1 0 0 0 .24.41c-.28.24-.66.09-1 .24a3.6 3.6 0 0 0 0 .56l.24.07a5.64 5.64 0 0 0 1.49 3.62l.18-.18a2.18 2.18 0 0 1 0-.25c.37.31.49.83.92 1.09a2 2 0 0 0 .12-.5 1.15 1.15 0 0 0 .41.28c.19 3.51.22 4.05-.17 5-.5 0-.58-.15-.74-.64a.67.67 0 0 0-.43.18c-1.68-.13-1.53-2.57-3.28-2.6-.33.59-.07 1.26-.3 1.86l-.23.1a61.35 61.35 0 0 1-4.52-4.28c-.09-.14 0-.4.11-.54.21-.33.21-.33 0-2.41-.41-.27-.5-.32-.75-.46l-.2.14a.46.46 0 0 1-.21 0h-.49l-.28-.06h-.09l-.47-.11a2.37 2.37 0 0 0-.35.42 2.08 2.08 0 0 0-.76-.14h-.22a3.57 3.57 0 0 0-.63.16 1.8 1.8 0 0 0-.22.06c-.26.08-.52.18-.78.28s-.47.19-.71.27l-.24.06a2.78 2.78 0 0 1-.69.12h-.15a2 2 0 0 1-.71-.12h-.27l-.37.06a.58.58 0 0 1-.23 0 .67.67 0 0 1-.23-.13.46.46 0 0 1-.07-.07 2.16 2.16 0 0 1-.32-.34L95.9 58c-.07.07-.17.14-.23.21-.34.42-.08 1-.41 1.43s-1.2.52-1.59 1.09c-.11.16-.06.47-.07.67-.11 2.21-.11 2.21-.71 2.5a6.39 6.39 0 0 0-1.56 1.15c-.34.53-2.77 4.76-2.77 4.77-.1 1.13.64 2.08.66 3.18 0 .93-1.3 1.37-.88 2.44.62 1.61 1.49 3.11 2.23 4.66a1.69 1.69 0 0 0 .21.31c.09.12.2.24.32.37l.07.09.37.38.13.13.37.36.16.15.34.3.21.17.25.2.19.13.19.13a.34.34 0 0 0 .12 0 .55.55 0 0 0 .13 0c.53 0 1.07-.14 1.6-.24l1.33-.26.64-.11c.34-.06.67-.11 1-.15h.64a7.84 7.84 0 0 1 1.37 0 .53.53 0 0 1 .22.12c.4.34.11 1 .51 1.3s.9.17 1.34.31a1.66 1.66 0 0 1-.08 1.72c-1 2.36-1 2.36-.84 3 .24 1.06.57 2.51-.79 5.7-.62 1.47-1.82 2.55-2.64 3.88s-.85 2.74-1.56 4c-2.76 4.91-2.84 5-3.28 5.45a3.06 3.06 0 0 0-.78 1.19 2.74 2.74 0 0 0 .69.27h.15a3.51 3.51 0 0 0 .79-.12 4.62 4.62 0 0 0 .76-.3l.13-.05.61-.34.11-.07.4-.26 2.19-1.54L101 104c.62-.65 1-1.5 1.66-2.12s1.79-1 2.54-1.77a21.44 21.44 0 0 0 3.65-5.58 23 23 0 0 1 3.8-5.06 20.94 20.94 0 0 0 3-5.75l-.29-.07h-.18l-.29.06c-.11-.15-.11-.15.12-2.18a16.79 16.79 0 0 0-.1-2.24c0-1.94.34-3.87.17-5.81l-.52-6.13c.12.19.12.19.25 1.08A1.05 1.05 0 0 0 115 68c1.26 4.62-.07 9.25.08 13.88l.32-.15h.37c1.34-2.89 1.34-2.89 1.4-3.26v.27c0-.15.07-.36.09-.51v-.17l.14-1.07c.06-.49.14-1.1.25-2.76v.25c.09-1.48.19-3.28.18-4.65zm-8.93 17.43h-.09c-.45-.17-1-.33-1.51-.49h-.17c-.55-.15-1.15-.3-1.79-.44h-.1l.38.09.49.11.55.15.43.11.51.15.39.11.47.16.33.11.48.19.26.1.66.3a13.21 13.21 0 0 0-1.29-.65zm-4.43-1.21h.19l-.87-.18h.06zm.56.12h.14-.25zm-2-.42h.23-.26zm14.53-10.57c-.1-.21-.1-.21 0-2 0 .56 0 .56-.08.8-.14-3.77-.08-4.11 0-4.59a21.61 21.61 0 0 1 .27 4.72 5 5 0 0 1-.24 1.07z"/><path class="cls-4" d="M116.42 58.72a2.09 2.09 0 0 1 0 .21l.25 1.13V60c.09.67.22 1.33.35 2a31 31 0 0 0-1.1-5l-.28-.9c.59 2 .61 2.1.85 3.16.01-.2-.03-.37-.07-.54zm-.9-3.18c0 .07 0 .13.08.19a6 6 0 0 1-.23-.72 2.25 2.25 0 0 1 .08.24l-.59-1.77a1.31 1.31 0 0 0-.11-.26c.24.7.52 1.58.93 2.82zm1.89 8.61c-.07-.73-.21-1.45-.35-2.16.09.55.18 1.21.3 2 .02.01.03.1.05.16zM88.74 40.52a5.61 5.61 0 0 0-.32 1.08c-.05.28 0 .42.06.53a.44.44 0 0 0 .32.09h.13a2.54 2.54 0 0 0 .34 0h.15a2.21 2.21 0 0 0 .52-.24 4.1 4.1 0 0 1 .41-.26c.17-.09.4 0 .53-.21s0-.35-.09-.72a1.57 1.57 0 0 0-.24-.43.4.4 0 0 1 0-.5.63.63 0 0 0 0-.45.76.76 0 0 0-.31-.4l-.2-.12c-.18-.08-.37-.12-.54-.2a.42.42 0 0 1-.19-.13s-1.18.29-.47.69a.37.37 0 0 0 .18 0 .67.67 0 0 1-.11.07 2.11 2.11 0 0 0-.69.45.49.49 0 0 0-.12.42.45.45 0 0 0 .25.26 1.71 1.71 0 0 0 .39.07zm-47.02-13.3c-.11.05-1 .58-1.06.64s.1 0 1.06-.64zm61.78 27.86c.09.1.28.05.32.22s0 .31 0 .47a.24.24 0 0 0 .16.16h.25l.09-.05.12-.11a.46.46 0 0 0 .07-.07.45.45 0 0 0 .08-.26.76.76 0 0 0 0-.15c0-.18-.09-.35-.12-.52s0-.38 0-.57-.15-.33-.25-.34a1.06 1.06 0 0 0-.73.43 1.3 1.3 0 0 0 .01.79zm-3.34-.28a.85.85 0 0 0 .28.17h.1a.78.78 0 0 0 .23.06s.07 0 .11-.06l.22-.25c0-.09-.13-.16-.39-.19h-.47a.26.26 0 0 0-.09 0s-.04.22.01.27zm3.27-2.01a.41.41 0 0 0 .08.14s.41.49.43.5a2.79 2.79 0 0 0-.07-1.14 2.32 2.32 0 0 0-.21-.63.1.1 0 0 0 0 .06 2.36 2.36 0 0 0 0 .53.38.38 0 0 1-.15.33.16.16 0 0 0-.08.21zm10.87 10.33h.27a4.59 4.59 0 0 0 .08-.59v-.07h-.19a.3.3 0 0 1-.15 0 2.09 2.09 0 0 0-.17-.14.07.07 0 0 0-.06 0 .91.91 0 0 0 .17.69.2.2 0 0 0 .05.11zM36.64 31h.06c.28-.2.53-.44.82-.64.52-.36 1.08-.66 1.59-1 .12-.08.12-.08.27-.37a1.86 1.86 0 0 0-.46.25c.13-.11.13-.11.15-.21L39 29c-.64.27-.64.27-3.45 2.58a1.92 1.92 0 0 0-.64.78A10 10 0 0 0 36.64 31zm3.95-2.66a.55.55 0 0 0 .13-.05h.07l.31-.16c.87-.49 1.31-.68 1.31-.68a8.6 8.6 0 0 0 .84-.33c.22-.11 1-.67 1-.67s.16-.13.18-.16h-.18c-.25.14-.46.33-.71.47.3-.3.66-.54 1-.85a4.71 4.71 0 0 0-1 .66c0 .1-.16.36-.93.54l.06-.06c.11-.12.46-.18.32-.35 0 0-2.08 1-2.1 1.29h.06l.94-.51c-.1.16-.29.21-.43.33l.28-.13a1.67 1.67 0 0 1 .43-.19 15 15 0 0 1-1.37.72c-.15.06-.15.15-.07.16z"/><path class="cls-4" d="M34.91 33.44a.5.5 0 0 0 .13 0 .43.43 0 0 1 .22-.06c-.07.18-.24.28-.33.45h.12a8 8 0 0 0 1.58-.83 4.92 4.92 0 0 0 .67-.46 1.88 1.88 0 0 1 .5-.34.71.71 0 0 0-.08.15 3.23 3.23 0 0 0 .6.18c.49-.17.49-.17 1-.71h-.24l-.23.12a.4.4 0 0 1 .11-.15l.06-.05.15-.12.09-.05.17-.08h.11a.86.86 0 0 1 .17 0h.07a.18.18 0 0 0 .11 0s.26-.23.21-.44c-.25-.14-.36-.43-.22-.6A15.25 15.25 0 0 0 41 28.94a.49.49 0 0 0-.16-.05.14.14 0 0 0 0-.06 9.87 9.87 0 0 1-1.41 1.33c0-.24.19-.31.26-.48A6.67 6.67 0 0 1 39 30c.07-.11.19-.18.24-.3-.32.1-.56.35-.87.47.19-.27.5-.39.72-.62-.19 0-2.72 1.65-2.66 2l.1.05c0 .08 0 .09-.35.27-.51.3-.53.36-.53.43h.07c.28-.06.51-.25.78-.31a1 1 0 0 1 .3 0h.3a3.45 3.45 0 0 1-1 .48c-1.32.39-1.45 1-1.21 1zm10.88 2.97h.14l.13-.1.08-.06.12-.13.06-.07a.93.93 0 0 0 .11-.16v-.08h-.13a1.14 1.14 0 0 0-.49.19.41.41 0 0 0 0 .46zm-1.95 39.26h-.06l-.13-.11-.1-.05-.16-.07h-.11a.35.35 0 0 0-.11 0h-.1c-.27.11-.11.54 0 .6h.45a.51.51 0 0 0 .17 0h.07c.07 0 .11-.07.1-.14a.27.27 0 0 0-.02-.23zM92 40.33v.08h.34a.93.93 0 0 0-.34-.08zm-32.44 2.75h-.06a3.5 3.5 0 0 0-1 .91c-.44.54-.74 1.18-1.18 1.72-.23.3-.55.5-.76.81-.09.11 0 .15 0 .17a7 7 0 0 0 1.37.13 9.66 9.66 0 0 1 1.88.29 1.74 1.74 0 0 0 .22 0h.44a.25.25 0 0 1 .2.09.63.63 0 0 1 .12.44c0 .06 0 .1.05.12.21 0 .46-.43.49-.77a3 3 0 0 0-.8-1.86.55.55 0 0 0-.14-.13h-.05a.2.2 0 0 0-.11 0h-.24l-.43.08a.27.27 0 0 1-.2 0h-.05a.27.27 0 0 1-.09-.17c-.1-.37-.19-.43-.33-.51s-.08-.06 0-.13a1.73 1.73 0 0 1 .22-.31c.35-.46.49-.75.45-.88z"/><path class="cls-4" d="M89.7 37.1c0 .27-.17.52-.06.79h.23a1.59 1.59 0 0 0 .39-.23.57.57 0 0 1 .24-.13h.1c.37.21-.06.61.06.9a1.16 1.16 0 0 0 1 .77 2.55 2.55 0 0 1 .8.26v.29c.17.29.45.48.59.79a.16.16 0 0 1 0 .14h-.12a.56.56 0 0 1-.15 0h-.07l-.23-.1c-.12-.06-.12-.06-.46-.09.14.4.58.59.67 1 0 .23-.16.36-.47.5-.08 0-.21.1-.16.19h1.46a.86.86 0 0 1 .17 0h.06c.06 0 .1.06.11.11s0 .14-.09.16h-.29a.31.31 0 0 0-.15 0h-.06a.43.43 0 0 0-.13.09c-.16.15-.19.37-.32.52s-.41.31-.58.5v.06h.22l.62-.07h.08l.58-.07c.71-.09 1.43 0 2.14-.14l1.22-.41a.38.38 0 0 0-.3-.12h-.34a.5.5 0 0 1-.21 0c-.13-.37.21-.7.07-1.07a2.9 2.9 0 0 0-.17-.35l-.07-.08a.38.38 0 0 0-.08.09h-.36a.5.5 0 0 1-.21-.05h-.12a1.14 1.14 0 0 1-.16-.15l-.07-.2a1.36 1.36 0 0 1-.12-.17v-.06l-.06-.1h.1l.24.05a1.21 1.21 0 0 0 .28.08.75.75 0 0 0-.19-.19c-.57-.45-1.29-.67-1.82-1.18a4.78 4.78 0 0 0-.73-.76 2.58 2.58 0 0 0-1.26-.42c.31-.28.71-1.64-.12-1.67a3.45 3.45 0 0 0-.38 0h-.57a.1.1 0 0 1 0-.08c0-.27.46-.79.08-.81 0 0-1 0-1.19.38a.45.45 0 0 0 0 .12c.08.33.31.59.36.91zM21.85 50.52c.13-.31.2-.64.32-1s.16-.37.23-.56a.19.19 0 0 0 0-.07v-.14a4.1 4.1 0 0 0-.53 1.76zm61.08-20.26v-.06a1 1 0 0 0-.42-.37h-.11a6.88 6.88 0 0 1-.91-.13 2.53 2.53 0 0 1-.36-.2.57.57 0 0 0-.23-.08c-.28.06-.55.18-.84.25s-.57.05-.84.14 0 .28-.19.35a.24.24 0 0 1-.22 0h-.22l-.08.05c-.05.25.17.53-.1.74a3.8 3.8 0 0 1-.81-.74.77.77 0 0 0-.27-.27l-.11-.06a1.47 1.47 0 0 0-.28-.14h-.13a1.59 1.59 0 0 0-.36-.06.49.49 0 0 0-.3.08c.08.23.35.18.47.34-.08.33-.46.28-.62.51a.42.42 0 0 0 .18 0h1.06l.07.06a.16.16 0 0 1 0 .07v.05a.17.17 0 0 1 0 .1.11.11 0 0 1 0 .05.44.44 0 0 1-.13.15.32.32 0 0 0 .17.12h.63c.28.08.28.18.28.42h1.26c.26 0 .5.14.76.15h.11a4 4 0 0 0 .95-.18c.65-.15 1.65-.88 1.6-1.09s-.15-.23-.19-.36a.07.07 0 0 1 .18.11zM44 74.18a.59.59 0 0 0 .24.16h.09l.29.09h.11l.44.07h.81c.08 0 .13 0 .13-.07s-2.28-2.76-2.31-2.78a1.36 1.36 0 0 0-.23-.14h-.1a1.69 1.69 0 0 0-.3-.13h-.18l-.43-.07h-.29a2.57 2.57 0 0 0-2 .84h.15a2.13 2.13 0 0 0 .37-.07.38.38 0 0 0 .1 0 2.22 2.22 0 0 0 .48-.2 1.59 1.59 0 0 1 .43-.17h.12a.77.77 0 0 1 .21 0 1.06 1.06 0 0 1 .2 0h.07c.07 0 .11.07.12.1a.15.15 0 0 1-.13.09.27.27 0 0 1-.21 0c0 .32.56.46.91.55.65.16.7.3.83.71a1.38 1.38 0 0 0 .25.5.82.82 0 0 1 .17.28c-.03.14-.28.13-.34.24zm2.82 2.2c.18.11 0 .45.3.48h.05a.29.29 0 0 0 .13 0h.09a.49.49 0 0 0 .11-.14l.13-.17.06-.1a.37.37 0 0 1 .23-.12h.17l.59.07h1.33c.06 0 .1 0 .1-.08s-.16-.37-.1-.58a.23.23 0 0 0-.09-.22.67.67 0 0 0-.11-.07 1.14 1.14 0 0 0-.22-.12l-.2-.07a2.46 2.46 0 0 0-.29-.09 2.61 2.61 0 0 0-.27-.06l-.32-.07h-.29L48 75h-1.37l.05.1a.9.9 0 0 1 .31 1h-.2l-.5-.06-.44-.07h-.34c.39.18.89.18 1.31.41zm60.7 22.7c-1 1.22-1 1.23-1.59 1.45s-.67.41-1.43 1.52a3.37 3.37 0 0 1-.9 1 16.52 16.52 0 0 0-2.74 3h.42l.1-.07h.06l.14-.12.08-.07.22-.2.07-.06.36-.34.52-.49c1.28-1.23 2.42-2.61 3.65-3.9l-.12.22a.88.88 0 0 0 .17-.19 11.64 11.64 0 0 0 1.32-2 4.62 4.62 0 0 0-.33.25z"/><path class="cls-4" d="M75.53 90.13c-.06-.35.41-.83 0-1.06a.54.54 0 0 0-.25-.06h-.31a.63.63 0 0 1-.19 0 .6.6 0 0 1-.19 0c-1-.23-1.69-1.11-2.67-1.41-1.45-.45-2.95-.71-4.43-1.08-.85-.31-.93-1.3-1.46-1.87-.9-.59-1.57-1.54-2.51-2.08-1.23-.7-2.74-.46-4-1.2-1-.58-1.61-1.57-2.65-2.07a2.34 2.34 0 0 0-.53-.17L54 78.88l-.61-.07a19.17 19.17 0 0 0-2.17-.15 10.33 10.33 0 0 0-1.16.07h-.24a4.87 4.87 0 0 0-1 .27l-.13.06a3 3 0 0 0-.72.47l-.13.11a2.58 2.58 0 0 0-.54.78l-.09.21a4.6 4.6 0 0 0-.29 1.15 2.15 2.15 0 0 0-.84-.3h-.31a6 6 0 0 0-.75 0h-1.49a2.34 2.34 0 0 1-.38 0 2.22 2.22 0 0 1-.39-.1 2.15 2.15 0 0 1-.27-.1.87.87 0 0 1-.27-.27 1.83 1.83 0 0 1-.13-.16A1.54 1.54 0 0 1 42 80a4.19 4.19 0 0 0-.43-2.59 2.34 2.34 0 0 0-.79-.22h-.69l-.73.07c-.25 0-.5.06-.75.08a3.33 3.33 0 0 1-.55 0c.39-1.28.39-1.28.11-1.87a7 7 0 0 0 .69-2.26l-.11-.08-.23-.13h-.05a1 1 0 0 0-.26-.11h-.6l-.16.06-.08.06-.14.11-.09.09-.14.09-.09.14-.12.23a1.71 1.71 0 0 0-.07.18c0 .09-.07.19-.11.3l-.06.22c0 .13-.07.28-.1.43s0 .14 0 .23-.08.5-.11.8h-.08a.82.82 0 0 0-.3.07h-.05a2.59 2.59 0 0 0-.33.19l-.29.17h-.05a.88.88 0 0 1-.32.07h-.08a.76.76 0 0 1-.37-.1 5.38 5.38 0 0 1-2.62-3c-.26-.85.46-1.52.45-2.33 0-.51-.71-.76-.53-1.35a8.54 8.54 0 0 1 2-2.46A.89.89 0 0 1 34 67h1.27l.58.08h.11l.34.06h.25l.2-.17c-.17-.2-.43-.26-.63-.42 0-.08 0-.18.06-.25a1.13 1.13 0 0 1 .3-.1H37l.37-.06h.67l.34-.05h1.86c1.56.83.61 3 2.1 3.88 1.77-1.86-1.06-3.51-.75-5.38s2.31-2.7 3.41-3.94l-.16-.18a1.79 1.79 0 0 1 0-.23l.23-.07v-.28l-.23-.08.36-3.56v2.13c.17-.11.17-.11.32-2.44a2.91 2.91 0 0 1 .41.73c.32-.55.21-1.26.7-1.74l.16-.09.52-.28h.07l.73-.38h.08l.28-.13.14-.07.14-.06h.14c.2-1.83.2-1.83 1.22-2.79h.29l.12-.07.12-.06.21-.11.17-.1.27-.15.29-.17L52 50l.35-.2 1-.56-.1.21a1.56 1.56 0 0 0 .52.11v.26C52 51.08 52 51.08 52 51.44a1.51 1.51 0 0 0 .28 0h.26l.36-.14.33-.12.39-.2.38-.28.39-.26.36-.24c.13-.1.24-.21.36-.31s.21-.17.31-.27.18-.22.27-.34a2 2 0 0 0 .23-.28 1.52 1.52 0 0 0 .16-.4 1.22 1.22 0 0 0 .1-.24 1.09 1.09 0 0 0 0-.62c-.5.33-.52.94-.82 1.39l-1-.27a.9.9 0 0 0 .45-.34h-.1a1.53 1.53 0 0 1-.48 0h-.11a1.07 1.07 0 0 1-.23-.07.39.39 0 0 1-.25-.44v-.09a.85.85 0 0 0 0 .67c-.45-.21-.52-.44-.7-1a1 1 0 0 1-.63-.41c.63-.17 1.09-.3 1.22-.93a.34.34 0 0 0-.26-.14h-.28l-.24.12h-.12l-.48.27-.72.43-.33.21-.69.42-.41.26-1.26.79c3.1-3.23 3.1-3.23 6.28-4.19a.73.73 0 0 0 .39.09 2.67 2.67 0 0 0 .52-.07l.19-.05.43-.13.26-.1.42-.18.27-.13c.14-.07.27-.13.4-.21l.26-.14.36-.23.22-.15L59 43l.15-.13a1.35 1.35 0 0 0 .28-.34c-.16-.39-.16-.39.08-1l-.15-.23-.78-.16h-.23a3.34 3.34 0 0 0-1.49.62c0-.06-.06-.15-.09-.21.26-.37.38-.42 1.34-.79-1.87.16-3.69.31-5.69.52 1.84-.2 3.44-.34 5.71-.53a.31.31 0 0 0 .15-.1s0-.08-.1-.15l-.08-.06a1.4 1.4 0 0 0-.22-.14l-.16-.07a1.89 1.89 0 0 0-.31-.1h-.35a1.72 1.72 0 0 0-.44.06h-.32c-.07-.18.08-.38-.05-.56s-.53-.17-.71-.41 0-.19.12-.39.21-.29-.25-1.1L55 37l-.12-.2-.19-.32-.1-.14-.14-.17-.08-.08a.3.3 0 0 0-.11-.06c-.07 0-.14.06-.21.16v.08c-.07.11-.15.26-.26.45s.14.34 0 .51-.46 0-.61.22c-.36.49-.36.49-.46.52a1 1 0 0 1-.38 0h-.15a1.13 1.13 0 0 1-.24-.08l-.16-.07-.29-.14a2 2 0 0 0-.38-.14 2.31 2.31 0 0 1 .32-1.54 1 1 0 0 0-.28 0H51a1.11 1.11 0 0 1-.48 0c-.08 0-.12-.08-.22-.24s-.11-.19-.9-.45a.55.55 0 0 0-.22 0H49a16.05 16.05 0 0 0-2.19.32c.13.66-.69 1.26-.14 2-.1.32-.53.43-.55.81s.42.7.44 1.13c0 0 0 1.73-1 2-.21.05-.7.2-.6.57 0 .06-.07.08-.27.23-.26 1 .39 2.24-.74 3-.35-.54-1-.7-1.47-1a1.64 1.64 0 0 0 0-1.42l.28-.23v-.17h-.25a.77.77 0 0 0-.33-.18h-.86a1.3 1.3 0 0 1-.34 0c-.51-.14-.77-.66-1.26-.83a1.43 1.43 0 0 0-.28-.07h-.19a1.36 1.36 0 0 0-.46.13 2.78 2.78 0 0 1-.5.23c-.14-.11-.14-.11-.31-1.13-.06-.35-.06-.35-.9-.42-.19-1.08 2.46-3 3.58-3.88-.12-.35-.5-.2-.72-.37 2.2-.39 2.2-.39 3.45-1.72l-.48.08h-.12a1.91 1.91 0 0 1-.24 0 1.26 1.26 0 0 1-.27 0h-.14a4.47 4.47 0 0 1-.47-.22c.82-.3 1.87.22 2.49-.74a.49.49 0 0 0-.24-.08L44 33l.07-.06a.63.63 0 0 1 .36-.13.46.46 0 0 1 .29.07c1.42-.51 1.42-.51 1.8-.84a1.49 1.49 0 0 0 .23-.27c.15-.26-.1-.54 0-.8s.42-.21.59-.39a2 2 0 0 0 .18-.4l-.07-.06a.4.4 0 0 0-.12-.1l-.09-.06a.8.8 0 0 0-.16-.08h-.1a.58.58 0 0 0-.19 0h-.21l-.16.07-.09.06a1.57 1.57 0 0 0-.15.19l-.07.1a2.75 2.75 0 0 0-.17.49 1.65 1.65 0 0 0-.4.36l-.08.1c-.13.15-.26.32-.38.48a4.38 4.38 0 0 1-.35.38h-.05a.79.79 0 0 1-.39.17h-.22a.73.73 0 0 1-.29-.17c.07-.53 1.15-.88.65-1.4-.57.21-.8.79-1.23 1.16-.1-.29.49-1.05.49-1.05h-.54c.89-1.42.89-1.42.89-1.59l-.14-.1c.51-.78.51-.78 2.87-2.17h-.39c-1.89.44-4.44 4-4.46 4s0 .1.06.13h.6v.12a2.07 2.07 0 0 0-.67.43v.1h.13c-.41.69-1.29.92-1.61 1.69-.31-.32-.31-.32.27-.94h-.2a.32.32 0 0 0-.17.06h-.09l-.24.17-.13.1-.55.42-.1.06h-.07l-.19.06h-.73a4.81 4.81 0 0 1-.66 0c-.08-.12-.07-.29-.16-.41-1.07.28-1.39.9-2 2.14-.11-.31.16-.57.13-.87a1.39 1.39 0 0 0-.41.12l-.35.15-.15.06-.27.09a.86.86 0 0 1-.17 0 1 1 0 0 1-.34 0c.26-.26.69-.36.79-.78l-.11-.06a.56.56 0 0 1-.24.07 1.8 1.8 0 0 1-.29 0 1.71 1.71 0 0 0-.18-.2c-.3.06-.46.31-.69.47a2.13 2.13 0 0 1 .16-.25 2.07 2.07 0 0 0-.41.36 2.67 2.67 0 0 1 .54-.78c-.7.64-.7.64-2 1.73.4-.39.84-.74 1.25-1.12a21.8 21.8 0 0 0-2.06 1.83 1.7 1.7 0 0 1 .15-.22l-2.36 2.64a47.23 47.23 0 0 0-4.45 6.29l.06-.1a12.3 12.3 0 0 0-1 2.9l-.2.6.14.22a17.17 17.17 0 0 0-.59 2.46 1.93 1.93 0 0 0 .12 1 1.24 1.24 0 0 0-.23 0h-.09l-.06-.13c-.06-.13-.07-.25-.12-.26a2.43 2.43 0 0 0 0 1 .46.46 0 0 0 .16.24.27.27 0 0 0 .13 0 .32.32 0 0 0 .17-.19.73.73 0 0 0 0-.22 1.1 1.1 0 0 0 0-.18 2.86 2.86 0 0 1 .29 1.04l-.42-.22c-1.52 1.9-2 11.4-1 13.18.13 0 .13 0 2.34 4.54h-.53c.27.56 2.22 3.07 2.23 3.1.18-.26.36-.53-.53-1.8-.41-.58-.87-1.23-1.65-4.39a2.45 2.45 0 0 1 1.21 1.77 4.27 4.27 0 0 0 .39 1.19c.39.63.88 1.2 1.3 1.82.55.8 1.49 1.25 1.95 2.13.37.71.19 1.66 1 2.19a1.66 1.66 0 0 0 .38.18c.22.08.49.24.72.3.78.2 1.59.32 2.38.51a1.83 1.83 0 0 0 .47 0h.79a2.81 2.81 0 0 1 .41 0h.16a1.42 1.42 0 0 1 .55.18c1.82 1 1.82 1 2.45 1.1h.32a3.31 3.31 0 0 1 1 .28 2.85 2.85 0 0 1 .3.16 5.45 5.45 0 0 1 .58.33c.12.08.24.18.36.27l.45.36.56.49.49.42.5.41c.11.09.23.16.35.24s.32.23.49.33.27.11.41.17a4.18 4.18 0 0 0 .53.21c.14 0 .31 0 .47.07a4.34 4.34 0 0 0 .52.07h.15a2.63 2.63 0 0 1 .27-.39.39.39 0 0 1 .08-.1l.17-.17.09-.07a.6.6 0 0 1 .15-.09h.3a.43.43 0 0 1 .22.06 1.21 1.21 0 0 1 .23.18v.06c.06.07.11.15.17.23v.06l.18.34a.2.2 0 0 0 0 .08l.12.31a.69.69 0 0 1 0 .1c.05.13.09.26.13.39 0 .12.07.23.1.34v.1c0 .11.06.23.09.33.09.41.09.41-.69 2.12 0 0-.76 3.12-.44 3.7 0 .09.12.22.18.31a67.14 67.14 0 0 0 5.26 5.7c1 .88 2.41 1.09 3.49 1.86a5.19 5.19 0 0 1 1.74 3.28c0 .06 1.62 7.28 4.42 11.22.33.46.65.86 1 1.23.07.07.13.15.19.22.31.34.61.64.91.91l.17.15c.28.23.55.45.81.63l.11.08a9.21 9.21 0 0 0 .81.49l.17.09c.26.12.5.23.73.31a.32.32 0 0 0 .09 0 5.69 5.69 0 0 0 .6.18h.1a4.39 4.39 0 0 0 .52.09h.84c-3.31-1.7-3.31-1.7-3-3.11-.46-.49-.46-.49-1.33-2.88h.76c0-.06 0-.06-.76-1.11.58-.52.58-.52.53-.93l.15-.09a1.32 1.32 0 0 0 .42.07h.31a.59.59 0 0 0 .23-.14.47.47 0 0 0 .1-.1.72.72 0 0 0 .1-.24v-.1a.51.51 0 0 0-.07-.33l-.31-.43c2.34-.06 3.33-5.71 3.34-5.77a3.12 3.12 0 0 1 1.58-1.3c.83-.34.84-1.32 1.43-1.85a.78.78 0 0 1 .34-.19h.11a1 1 0 0 1 .25 0h.2a.19.19 0 0 0 .11-.05.56.56 0 0 0 0-.2c.09-.71 0-1.43.06-2.14 0-.39-.21-.8 0-1.19s.42-.61.21-.91a.54.54 0 0 1-.1-.2 4.84 4.84 0 0 0 2.65-2.85v-.08c.34-.27.15-.44.1-.67zm-7 8.52c0-.34-.15-1.46-.33-3.45.11 1.16.22 2.31.34 3.53-.04-.03-.05-.05-.05-.08z"/><circle cx="68.33" cy="68.46" r="56.19" stroke="#009ee2" stroke-width="6.06" fill="none" stroke-miterlimit="10"/><circle cx="68.33" cy="68.33" r="63.1" stroke-width="10.46" stroke="url(#radial-gradient)" fill="none" stroke-miterlimit="10"/></g></g></svg>